<?xml version="1.0" encoding="UTF-8" standalone="no"?>
<svg
   xmlns:dc="http://purl.org/dc/elements/1.1/"
   xmlns:cc="http://creativecommons.org/ns#"
   xmlns:rdf="http://www.w3.org/1999/02/22-rdf-syntax-ns#"
   xmlns:svg="http://www.w3.org/2000/svg"
   xmlns="http://www.w3.org/2000/svg"
   xmlns:sodipodi="http://sodipodi.sourceforge.net/DTD/sodipodi-0.dtd"
   xmlns:inkscape="http://www.inkscape.org/namespaces/inkscape"
   viewBox="0 0 512.00359 458.72798"
   version="1.1"
   id="svg6"
   sodipodi:docname="food_gr.svg"
   width="512.0036"
   height="458.728"
   style="fill:#efefef"
   inkscape:version="0.92.4 (5da689c313, 2019-01-14)">
  <metadata
     id="metadata12">
    <rdf:RDF>
      <cc:Work
         rdf:about="">
        <dc:format>image/svg+xml</dc:format>
        <dc:type
           rdf:resource="http://purl.org/dc/dcmitype/StillImage" />
      </cc:Work>
    </rdf:RDF>
  </metadata>
  <defs
     id="defs10" />
  <sodipodi:namedview
     pagecolor="#ffffff"
     bordercolor="#666666"
     borderopacity="1"
     objecttolerance="10"
     gridtolerance="10"
     guidetolerance="10"
     inkscape:pageopacity="0"
     inkscape:pageshadow="2"
     inkscape:window-width="2160"
     inkscape:window-height="1346"
     id="namedview8"
     showgrid="false"
     inkscape:zoom="0.6518615"
     inkscape:cx="304.19398"
     inkscape:cy="77.846028"
     inkscape:window-x="-11"
     inkscape:window-y="-11"
     inkscape:window-maximized="1"
     inkscape:current-layer="svg6" />
  <path
     d="m 197.965,172.23 a 23.4,23.4 0 0 0 -16.847,-7.585 c -12.859,-0.165 -23.497,10.087 -23.715,22.936 a 7.5,7.5 0 0 0 7.372,7.626 l 0.13,0.001 a 7.5,7.5 0 0 0 7.496,-7.374 8.328,8.328 0 0 1 8.482,-8.191 8.234,8.234 0 0 1 6.007,2.704 7.5001552,7.5001552 0 1 0 11.075,-10.117 z m 39.902,24.443 a 21.485,21.485 0 0 0 -12.281,-11.702 c -11.074,-4.085 -23.419,1.592 -27.522,12.653 a 7.5,7.5 0 0 0 14.063,5.217 c 1.232,-3.322 4.945,-5.022 8.265,-3.797 a 6.335,6.335 0 0 1 3.67,3.499 7.5005821,7.5005821 0 0 0 13.805,-5.87 z m 48.339,-66.425 a 7.498,7.498 0 0 0 -10.606,0.011 l -7.07,7.084 a 7.5,7.5 0 1 0 10.617,10.595 l 7.07,-7.084 a 7.5,7.5 0 0 0 -0.011,-10.606 z m -46.661,96.824 h -9.996 a 7.5,7.5 0 0 0 -7.5,7.5 7.5,7.5 0 0 0 7.5,7.5 h 9.996 a 7.5,7.5 0 0 0 7.5,-7.5 7.5,7.5 0 0 0 -7.5,-7.5 z m 76.644,0 h -9.997 a 7.5,7.5 0 0 0 0,15 h 9.997 a 7.5,7.5 0 0 0 0,-15 z"
     id="path2"
     inkscape:connector-curvature="0" />
  <path
     d="m 511.761,362.305 -1.953,-10.542 c -1.245,-6.736 -7.127,-11.625 -13.986,-11.625 -0.861,0 -1.729,0.079 -2.583,0.236 l -39.76,7.304 18.006,-12.037 a 14.197,14.197 0 0 0 6.075,-14.393 14.205,14.205 0 0 0 -1.598,-4.381 l -5.449,-9.649 a 14.283,14.283 0 0 0 -8.726,-6.754 14.29,14.29 0 0 0 -5.518,-0.348 189.717,189.717 0 0 0 3.039,-33.873 c 0,-5.105 -3.07,-9.498 -7.455,-11.449 5.73,-13.628 6.121,-29.23 0.457,-43.518 a 9.037,9.037 0 0 0 -2.024,-3.083 9.083,9.083 0 0 0 -3.064,-2.02 57.057,57.057 0 0 0 -23.983,-4.005 c -1.039,-20.933 -18.364,-37.644 -39.514,-37.644 -2.785,0 -5.501,0.296 -8.124,0.848 a 61.798,61.798 0 0 0 -3.496,-33.009 9.255,9.255 0 0 0 -2.072,-3.179 9.174,9.174 0 0 0 -3.113,-2.05 61.459,61.459 0 0 0 -22.839,-4.388 c -11.816,0 -23.119,3.322 -32.877,9.498 a 74.176,74.176 0 0 0 -17.658,-28.255 12.65,12.65 0 0 0 -9.011,-3.738 12.655,12.655 0 0 0 -9.014,3.74 l -36.313,36.396 a 37.698,37.698 0 0 0 -25.161,-9.577 c -2.178,0 -4.377,0.191 -6.536,0.567 -7.823,1.362 -15.022,5.191 -20.541,10.799 -7.077,-3.415 -15.184,-4.58 -22.975,-3.224 a 38.053,38.053 0 0 0 -4.991,1.23 v -28.046 c 0,-19.314 -15.523,-35.055 -34.725,-35.387 V 60.843 c 5.878,-1.017 10.366,-6.14 10.366,-12.304 V 12.5 C 134.645,5.608 129.038,0 122.145,0 H 61.154 c -6.893,0 -12.5,5.608 -12.5,12.5 v 36.039 c 0,6.164 4.488,11.287 10.366,12.304 V 76.747 C 39.818,77.078 24.296,92.819 24.296,112.134 V 331.03 C 9.322,344.553 0,363.422 0,384.288 c 0,41.046 36.025,74.44 80.307,74.44 l 300.187,-0.088 c 10.246,-0.004 19.882,-4.507 26.436,-12.353 a 34.117,34.117 0 0 0 7.534,-27.343 l 59.957,10.775 c 0.83,0.149 1.68,0.225 2.523,0.225 2.99,0 5.855,-0.918 8.281,-2.652 a 14.27,14.27 0 0 0 5.793,-9.46 l 1.624,-10.897 A 14.125,14.125 0 0 0 492.565,402.261 14.207,14.207 0 0 0 481.755,391 l -21.133,-4.848 39.721,-7.297 a 14.136,14.136 0 0 0 9.152,-5.922 14.089,14.089 0 0 0 2.266,-10.628 z m -85.74,-145.207 c 4.515,0 8.954,0.715 13.222,2.124 3.814,11.614 2.386,24.141 -3.586,34.489 h -20.204 l 6.447,-6.462 a 7.5,7.5 0 0 0 -0.013,-10.607 7.498,7.498 0 0 0 -10.606,0.012 l -3.411,3.419 a 34.785,34.785 0 0 0 -8.061,-13.846 c 7.444,-5.911 16.582,-9.129 26.212,-9.129 z m -42.296,-37.576 c 13.545,0 24.564,11.052 24.564,24.637 0,0.252 -0.012,0.501 -0.019,0.751 -7.906,2.571 -15.193,6.866 -21.408,12.699 a 34.415,34.415 0 0 0 -3.022,-1.008 34.793,34.793 0 0 0 -20.732,-25.789 c 4.379,-6.784 11.977,-11.29 20.617,-11.29 z M 344.08,137.744 c 5.094,0 10.1,0.824 14.924,2.454 a 46.988,46.988 0 0 1 -1.855,34.637 39.83,39.83 0 0 0 -9.608,13.321 35.396,35.396 0 0 0 -4.001,0.456 c -5.877,1.023 -11.357,3.573 -15.943,7.271 a 39.69,39.69 0 0 0 -5.673,-7.875 l 17.199,-17.238 a 7.498,7.498 0 0 0 -0.013,-10.606 7.5,7.5 0 0 0 -10.607,0.012 l -18.798,18.841 a 39.202,39.202 0 0 0 -11.506,-3.417 46.863,46.863 0 0 1 12.816,-24.117 c 8.839,-8.86 20.582,-13.739 33.065,-13.739 z m -57.47,115.967 h -6.501 c -1.095,-2.786 -3.802,-4.761 -6.977,-4.761 -3.175,0 -5.882,1.976 -6.977,4.761 h -7.648 c 1.776,-2.892 1.417,-6.724 -1.09,-9.226 a 7.5,7.5 0 0 0 -10.607,0.011 l -7.069,7.084 a 7.465,7.465 0 0 0 -1.482,2.131 h -15.265 c -5.717,-8.773 -9.206,-19.128 -9.619,-30.268 h 118.986 c -0.413,11.14 -3.902,21.495 -9.619,30.268 h -15.885 a 7.47,7.47 0 0 0 -1.482,-2.132 l -7.068,-7.084 a 7.5,7.5 0 0 0 -10.606,-0.012 c -2.509,2.502 -2.868,6.335 -1.091,9.228 z m -17.443,-45.268 c 2.827,-10.477 12.384,-18.208 23.71,-18.208 11.327,0 20.884,7.732 23.711,18.208 z m 15.337,-92.221 a 59.31,59.31 0 0 1 14.164,26.486 61.772,61.772 0 0 0 -9.519,13.652 7.451,7.451 0 0 0 -3.907,-1.107 h -9.994 a 7.5,7.5 0 0 0 0,15 h 8.767 a 62.114,62.114 0 0 0 -1.154,6.279 39.224,39.224 0 0 0 -8.484,3.314 C 269.378,171.219 261.1,164.79 251.292,162.211 a 37.968,37.968 0 0 0 -3.024,-9.67 z m -135.578,67.676 a 22.636,22.636 0 0 1 -0.992,-3.758 c -2.151,-12.401 6.209,-24.249 18.632,-26.412 a 23.136,23.136 0 0 1 3.955,-0.344 c 4.941,0 9.663,1.576 13.654,4.557 a 7.502,7.502 0 0 0 10.74,-1.864 c 3.521,-5.311 8.908,-8.835 15.168,-9.925 a 23.139,23.139 0 0 1 3.964,-0.344 22.747,22.747 0 0 1 22.454,18.905 c 0.218,1.255 0.33,2.563 0.332,3.888 a 7.5,7.5 0 0 0 6.844,7.458 c 8.385,0.737 15.523,6.014 18.832,13.448 a 39.542,39.542 0 0 0 -8.667,18.936 H 211.07 c -5.318,0 -9.881,3.283 -11.784,7.929 -9.41,-6.409 -20.5,-9.862 -32.122,-9.862 a 57.084,57.084 0 0 0 -21.206,4.075 9.052,9.052 0 0 0 -3.06,2.017 8.972,8.972 0 0 0 -2.021,3.077 57.46,57.46 0 0 0 -3.499,13.331 22.696,22.696 0 0 1 -5.322,-11.135 c -1.764,-10.176 3.563,-20.308 12.95,-24.64 a 7.5,7.5 0 0 0 3.92,-9.337 z m 22.358,67.762 2.046,2.051 h -18.013 c -4.044,-9.382 -4.658,-20.061 -1.375,-30.077 a 42.05,42.05 0 0 1 13.222,-2.125 c 11.301,0 21.932,4.417 29.933,12.436 a 42.427,42.427 0 0 1 2.986,3.34 74.091,74.091 0 0 0 5.74,16.425 H 194.52 l -12.617,-12.646 c -2.927,-2.931 -7.676,-2.939 -10.606,-0.012 a 7.5,7.5 0 0 0 -0.013,10.608 z m -31.94,2.051 h -26.737 c 1.192,-7.265 5.562,-13.458 11.628,-17.11 a 37.706,37.706 0 0 0 13.678,11.336 58.004,58.004 0 0 0 1.431,5.774 z M 63.654,15 h 55.991 V 46.039 H 63.654 Z m 45.625,46.039 V 76.732 H 74.021 V 61.039 Z M 39.297,142.55 H 88 a 7.5,7.5 0 0 0 7.5,-7.5 7.5,7.5 0 0 0 -7.5,-7.5 H 39.297 v -15.416 c 0,-11.25 9.124,-20.402 20.339,-20.402 h 64.028 c 11.216,0 20.34,9.152 20.34,20.402 V 127.55 H 130 a 7.5,7.5 0 0 0 -7.5,7.5 7.5,7.5 0 0 0 7.5,7.5 h 14.004 v 6.657 c -8.593,8.425 -13.056,20.78 -10.852,33.489 l 0.013,0.077 c -12.032,8.255 -18.443,22.931 -15.89,37.664 0.149,0.86 0.336,1.706 0.54,2.543 a 39.77,39.77 0 0 0 -9.996,7.856 H 39.297 Z M 39.296,245.835 H 99.11 a 39.346,39.346 0 0 0 -1.632,7.876 h -1.264 c -6.903,0 -12.52,5.621 -12.52,12.53 0,11.909 1.107,23.6 3.252,35.038 a 82.704,82.704 0 0 0 -6.613,-0.266 c -9.07,0 -17.712,1.439 -24.331,4.053 -10.125,3.998 -12.924,9.675 -13.535,13.603 a 83.144,83.144 0 0 0 -3.171,1.675 z m 94.971,92.135 c 2.701,2.161 4.352,3.998 5.309,5.323 l -0.279,0.002 c -4.245,0 -11.872,-1.711 -20.545,-6.512 -3.229,-1.789 -6.204,-3.81 -8.604,-5.843 a 7.5,7.5 0 0 0 -9.697,10e-4 c -2.4,2.035 -5.374,4.055 -8.6,5.84 -8.675,4.803 -16.302,6.514 -20.546,6.514 l -0.281,-0.002 c 0.956,-1.325 2.607,-3.163 5.309,-5.325 a 7.5,7.5 0 0 0 -3.814,-13.304 c -7.319,-0.858 -11.947,-2.721 -14.114,-4.077 2.715,-1.691 9.579,-4.574 21.931,-4.574 10.23,0 17.707,2.151 21.293,4.165 a 7.503,7.503 0 0 0 7.343,10e-4 c 3.588,-2.014 11.066,-4.165 21.296,-4.165 12.353,0 19.216,2.884 21.93,4.574 -2.166,1.357 -6.795,3.219 -14.116,4.077 a 7.5,7.5 0 0 0 -6.337,5.384 7.49,7.49 0 0 0 2.522,7.921 z m -15.003,91.286 0.258,1.39 a 34.157,34.157 0 0 0 5.401,13.082 H 80.307 C 44.297,443.728 15,417.064 15,384.288 c 0,-22.399 13.688,-41.935 33.844,-52.065 2.315,1.728 5.201,3.218 8.625,4.42 -1.358,2.319 -2.304,4.813 -2.527,7.414 -0.296,3.458 0.762,6.742 2.982,9.248 2.933,3.312 7.435,4.991 13.381,4.991 7.924,0 18.321,-3.137 27.811,-8.391 a 73.966,73.966 0 0 0 6.185,-3.82 74.439,74.439 0 0 0 6.185,3.821 c 9.49,5.253 19.887,8.389 27.811,8.39 h 0.001 c 5.944,0 10.446,-1.679 13.378,-4.99 2.221,-2.506 3.28,-5.79 2.983,-9.249 -0.223,-2.601 -1.169,-5.095 -2.527,-7.414 3.424,-1.203 6.311,-2.693 8.626,-4.42 15.985,8.034 27.896,21.985 32.143,38.588 l -53.045,20.151 c -15.527,5.9 -24.608,22.004 -21.592,38.294 z m 276.154,7.414 a 19.406,19.406 0 0 1 -14.931,6.97 l -7.872,0.003 -4.918,-26.555 a 7.498,7.498 0 0 0 -8.741,-6.009 7.5,7.5 0 0 0 -6.009,8.74 l 4.414,23.829 -25.806,0.01 -3.325,-17.957 a 7.5003477,7.5003477 0 0 0 -14.75,2.731 l 2.82,15.232 -60.025,0.023 -4.518,-24.388 a 7.5005298,7.5005298 0 0 0 -14.75,2.733 l 4.013,21.661 -87.644,0.034 h -0.006 c -9.372,0 -17.404,-6.65 -19.102,-15.816 l -0.258,-1.39 c -1.695,-9.156 3.423,-18.213 12.17,-21.537 l 29.477,-11.198 2.196,11.852 a 7.502,7.502 0 0 0 8.741,6.008 7.5,7.5 0 0 0 6.007,-8.741 l -2.693,-14.533 43.755,-16.622 a 7.5001801,7.5001801 0 0 0 -5.326,-14.023 l -20.361,7.735 c -5.712,-20.223 -20.386,-37.116 -39.845,-46.794 -0.611,-3.928 -3.41,-9.605 -13.534,-13.603 -6.619,-2.614 -15.261,-4.053 -24.331,-4.053 -6.242,0 -12.203,0.689 -17.465,1.944 v -4.53 a 7.5,7.5 0 0 0 -7.5,-7.5 7.46,7.46 0 0 0 -4.634,1.61 175.207,175.207 0 0 1 -1.955,-23.827 H 343 a 7.5,7.5 0 0 0 7.5,-7.5 7.5,7.5 0 0 0 -7.5,-7.5 h -3.069 a 74.244,74.244 0 0 0 7.474,-32.519 c 0,-6.617 -5.063,-12.068 -11.515,-12.687 a 19.767,19.767 0 0 1 10.223,-5.116 c 1.145,-0.199 2.307,-0.3 3.455,-0.3 a 19.818,19.818 0 0 1 19.564,16.469 c 0.191,1.105 0.289,2.245 0.29,3.39 a 7.5,7.5 0 0 0 6.844,7.462 c 8.963,0.787 16.296,7.528 17.833,16.392 a 19.603,19.603 0 0 1 -0.052,6.909 H 386 a 7.5,7.5 0 0 0 -7.5,7.5 7.5,7.5 0 0 0 7.5,7.5 h 58.292 c -0.186,13.758 -1.958,27.197 -5.263,40.236 l -40.646,23.994 a 34.222,34.222 0 0 0 -16.225,-20.447 34.433,34.433 0 0 0 -29.11,-2.143 l -83.711,31.802 a 7.5001801,7.5001801 0 0 0 5.326,14.023 l 11.028,-4.189 3.424,18.487 a 7.503,7.503 0 0 0 8.741,6.009 7.5,7.5 0 0 0 6.009,-8.74 l -3.921,-21.17 58.429,-22.197 a 19.466,19.466 0 0 1 16.459,1.21 19.27,19.27 0 0 1 9.576,13.331 l 15.173,81.915 a 19.183,19.183 0 0 1 -4.163,15.84 z m 26.76,-58.706 a 7.5,7.5 0 0 0 -0.322,14.686 l 55.84,12.808 -1.395,9.359 -64.734,-11.633 -10.119,-54.634 56.384,-33.284 4.697,8.317 -47.558,31.791 a 7.5,7.5 0 0 0 5.524,13.612 l 74.706,-13.723 1.664,8.98 z"
     id="path4"
     inkscape:connector-curvature="0" />
</svg>
