<svg height="640" viewBox="0 0 480 480" width="640" xmlns="http://www.w3.org/2000/svg" fill="#efefef"><path d="M472 144h-8V56a8 8 0 00-8-8H320V8a8 8 0 00-8-8H168a8 8 0 00-8 8v40H24a8 8 0 00-8 8v88H8a8 8 0 00-8 8v32a8 8 0 008 8h8v280a8 8 0 008 8h432a8 8 0 008-8V192h8a8 8 0 008-8v-32a8 8 0 00-8-8zM320 64h128v80H320zM176 16h128v128H176zM32 64h128v80H32zm360 400H288v-64h104zm0-80H288v-80h104zm0-96H288v-40h104zm56 176h-40V240a8 8 0 00-8-8H280a8 8 0 00-8 8v224H32V192h416zm16-288H16v-16h448zm0 0"/><path d="M80 408h144a8 8 0 008-8v-40a8 8 0 00-8-8h-8V240a8 8 0 00-8-8H96a8 8 0 00-8 8v112h-8a8 8 0 00-8 8v40a8 8 0 008 8zm24-160h96v104h-96zM88 368h128v24H88zm0 0M368 352a8 8 0 008-8v-8a8 8 0 00-16 0v8a8 8 0 008 8zm0 0M280 56h-16V40a8 8 0 00-8-8h-32a8 8 0 00-8 8v16h-16a8 8 0 00-8 8v32a8 8 0 008 8h16v16a8 8 0 008 8h32a8 8 0 008-8v-16h16a8 8 0 008-8V64a8 8 0 00-8-8zm-8 32h-16a8 8 0 00-8 8v16h-16V96a8 8 0 00-8-8h-16V72h16a8 8 0 008-8V48h16v16a8 8 0 008 8h16zm0 0"/><path d="M133.656 301.656l24-24a8 8 0 00-11.312-11.312l-24 24a8 8 0 1011.312 11.312zm0 0M170.344 282.344l-40 40a8 8 0 1011.312 11.312l40-40a8 8 0 00-11.312-11.312zm0 0"/></svg>