<?xml version="1.0" encoding="UTF-8" standalone="no"?>
<svg
   xmlns:dc="http://purl.org/dc/elements/1.1/"
   xmlns:cc="http://creativecommons.org/ns#"
   xmlns:rdf="http://www.w3.org/1999/02/22-rdf-syntax-ns#"
   xmlns:svg="http://www.w3.org/2000/svg"
   xmlns="http://www.w3.org/2000/svg"
   xmlns:sodipodi="http://sodipodi.sourceforge.net/DTD/sodipodi-0.dtd"
   xmlns:inkscape="http://www.inkscape.org/namespaces/inkscape"
   height="479.99976"
   width="479.99988"
   version="1.1"
   id="svg8"
   sodipodi:docname="plane-tickets_gr.svg"
   style="fill:#efefef"
   inkscape:version="0.92.4 (5da689c313, 2019-01-14)">
  <metadata
     id="metadata14">
    <rdf:RDF>
      <cc:Work
         rdf:about="">
        <dc:format>image/svg+xml</dc:format>
        <dc:type
           rdf:resource="http://purl.org/dc/dcmitype/StillImage" />
      </cc:Work>
    </rdf:RDF>
  </metadata>
  <defs
     id="defs12" />
  <sodipodi:namedview
     pagecolor="#ffffff"
     bordercolor="#666666"
     borderopacity="1"
     objecttolerance="10"
     gridtolerance="10"
     guidetolerance="10"
     inkscape:pageopacity="0"
     inkscape:pageshadow="2"
     inkscape:window-width="716"
     inkscape:window-height="489"
     id="namedview10"
     showgrid="false"
     inkscape:zoom="0.4609375"
     inkscape:cx="240"
     inkscape:cy="239.99988"
     inkscape:window-x="0"
     inkscape:window-y="0"
     inkscape:window-maximized="0"
     inkscape:current-layer="svg8" />
  <path
     d="m 232,415.99988 v 16 h 64 a 8,8 0 0 0 5.656,-2.344 l 18.344,-18.344 18.344,18.344 a 8,8 0 0 0 5.656,2.344 h 96 a 40.047,40.047 0 0 0 40,-40 v -128 a 40.047,40.047 0 0 0 -40,-40 h -16 v 16 h 16 a 24.027,24.027 0 0 1 24,24 v 128 a 24.027,24.027 0 0 1 -24,24 h -92.688 l -21.656,-21.656 a 8,8 0 0 0 -11.312,0 l -21.656,21.656 z"
     id="path2"
     inkscape:connector-curvature="0" />
  <path
     d="m 40,431.99988 h 8 v -16 h -8 a 24.027,24.027 0 0 1 -24,-24 v -12.688 l 87.031,87.032 a 46.626,46.626 0 0 0 65.938,0 L 312,323.31188 v 12.688 h 16 v -24 h -4.688 l 42.344,-42.344 a 8,8 0 0 0 2.344,-5.656 v -24 h 24 a 8,8 0 0 0 5.656,-2.344 l 68.688,-68.687 a 46.626,46.626 0 0 0 0,-65.938 L 376.969,13.655878 a 46.626,46.626 0 0 0 -65.938,0 l -68.687,68.688 a 8,8 0 0 0 -2.344,5.656 v 24.000002 h -24 a 8,8 0 0 0 -5.656,2.344 L 16,308.68788 v -44.688 a 24.027,24.027 0 0 1 24,-24 h 32 v -16 H 40 a 40.047,40.047 0 0 0 -40,40 v 128 a 40.047,40.047 0 0 0 40,40 z m -15.031,-109.656 194.343,-194.344 H 248 a 8,8 0 0 0 8,-8 V 91.311878 l 66.344,-66.343 c 11.57,-11.571 31.742,-11.571 43.312,0 l 89.375,89.375002 a 30.629,30.629 0 0 1 0,43.312 l -66.343,66.344 H 360 a 8,8 0 0 0 -8,8 v 28.688 l -194.344,194.343 c -11.57,11.571 -31.742,11.571 -43.312,0 l -89.375,-89.375 a 30.629,30.629 0 0 1 0,-43.312 z M 312,351.99988 h 16 v 24 h -16 z m 40,16 h 40 v 16 h -40 z m 56,0 h 40 v 16 h -40 z m -56,-32 h 96 v 16 h -96 z"
     id="path4"
     inkscape:connector-curvature="0" />
  <path
     d="m 352,303.99988 h 96 v 16 h -96 z m 24,-32 h 72 v 16 h -72 z m -117.702,-130.33 11.31,-11.31 15.998,15.997 -11.311,11.31 z m 31.992,32 11.311,-11.31 15.998,15.997 -11.311,11.31 z m 31.994,32 11.31,-11.31 15.998,15.997 -11.311,11.31 z m -212.268,74.08 43.733,11.189 -13.062,13.061 H 112 a 8,8 0 0 0 -5.656,13.656 l 56,56 a 8,8 0 0 0 13.656,-5.656 v -28.688 l 12.043,-12.042 12.266,42.93 a 8,8 0 0 0 13.347,3.457 l 16,-16 a 8,8 0 0 0 2.344,-5.657 v -68.688 l 12.688,-12.687 a 65.507,65.507 0 0 0 19.312,-46.625 8,8 0 0 0 -8,-8 65.507,65.507 0 0 0 -46.625,19.312 l -12.688,12.688 H 128 a 8,8 0 0 0 -5.656,2.344 l -16,16 a 8,8 0 0 0 3.672,13.406 z m 105.984,68.938 -4.043,4.042 -10.973,-38.4 15.016,-15.018 z m 4.688,-102.063 a 49.582,49.582 0 0 1 26.55,-13.863 49.582,49.582 0 0 1 -13.863,26.55 l -71.031,71.032 a 8,8 0 0 0 -2.344,5.656 v 12.688 l -28.688,-28.688 H 144 a 8,8 0 0 0 5.656,-2.344 z m -89.376,17.375 h 49.375 l -13.787,13.789 -39.314,-10.059 z m 158.99,-157.634 63.991,-63.990002 11.31,11.31 -63.99,63.990002 z m 23.995,24 63.991,-63.990002 11.31,11.31 -63.99,63.990002 z m 23.995,24 63.991,-63.990002 11.31,11.310002 -63.99,63.99 z m 23.992,23.999 23.996,-23.996 11.311,11.31 -23.996,23.997 z m 40,-39.991 23.996,-23.996 11.311,11.31 -23.996,23.997 z m -367.98,199.939 39.994,-39.994 11.31,11.31 -39.993,39.995 z m 23.992,24 23.996,-23.996 11.311,11.31 -23.996,23.997 z m 23.995,24 23.996,-23.996 11.311,11.31 -23.996,23.997 z m 23.995,24 23.996,-23.996 11.311,11.31 -23.996,23.997 z m 23.995,24 23.996,-23.996 11.311,11.31 -23.996,23.997 z m 175.999,-175.963 15.998,-15.997 11.31,11.311 -15.997,15.997 z m -32,31.994 15.998,-15.998 11.31,11.311 -15.997,15.997 z m -103.975,-88.001 55.991,-55.991 11.311,11.31 -55.991,55.992 z"
     id="path6"
     inkscape:connector-curvature="0" />
</svg>
