<?xml version="1.0" encoding="UTF-8" standalone="no"?>
<svg
   xmlns:dc="http://purl.org/dc/elements/1.1/"
   xmlns:cc="http://creativecommons.org/ns#"
   xmlns:rdf="http://www.w3.org/1999/02/22-rdf-syntax-ns#"
   xmlns:svg="http://www.w3.org/2000/svg"
   xmlns="http://www.w3.org/2000/svg"
   xmlns:sodipodi="http://sodipodi.sourceforge.net/DTD/sodipodi-0.dtd"
   xmlns:inkscape="http://www.inkscape.org/namespaces/inkscape"
   width="487.961"
   height="482.29901"
   version="1.1"
   id="svg10"
   sodipodi:docname="retirement_gr.svg"
   style="fill:#efefef"
   inkscape:version="0.92.4 (5da689c313, 2019-01-14)">
  <metadata
     id="metadata16">
    <rdf:RDF>
      <cc:Work
         rdf:about="">
        <dc:format>image/svg+xml</dc:format>
        <dc:type
           rdf:resource="http://purl.org/dc/dcmitype/StillImage" />
      </cc:Work>
    </rdf:RDF>
  </metadata>
  <defs
     id="defs14" />
  <sodipodi:namedview
     pagecolor="#ffffff"
     bordercolor="#666666"
     borderopacity="1"
     objecttolerance="10"
     gridtolerance="10"
     guidetolerance="10"
     inkscape:pageopacity="0"
     inkscape:pageshadow="2"
     inkscape:window-width="716"
     inkscape:window-height="489"
     id="namedview12"
     showgrid="false"
     inkscape:zoom="0.4609375"
     inkscape:cx="247.961"
     inkscape:cy="242.299"
     inkscape:window-x="0"
     inkscape:window-y="0"
     inkscape:window-maximized="0"
     inkscape:current-layer="svg10" />
  <g
     data-name="Out line"
     id="g8"
     transform="translate(-8.039,-16)">
    <path
       d="m 152,112 h -16 a 8,8 0 0 0 0,16 h 16 a 8,8 0 0 0 0,-16 z"
       id="path2"
       inkscape:connector-curvature="0" />
    <path
       d="M 304,264 V 216.496 L 321.194,78.946 A 56,56 0 0 0 265.626,16 H 124 a 27.998,27.998 0 0 0 -8.654,54.625 l -50.39,93.582 A 8,8 0 0 0 72,176 h 32 v 96 a 8,8 0 0 0 8,8 h 72 v 19.719 L 86.459,364.747 A 177.472,177.472 0 0 0 8.039,495.204 l 15.921,1.592 A 161.527,161.527 0 0 1 95.333,378.059 l 19.328,-12.885 A 525.697,525.697 0 0 0 56.337,493.701 l 15.326,4.598 a 509.83,509.83 0 0 1 68.842,-143.296 l 3.249,12.997 -31.515,126.06 15.522,3.88 29.905,-119.619 9.94,3.314 -7.588,113.833 15.964,1.064 7.8,-117.001 33.612,-33.612 11.646,13.588 a 580.623,580.623 0 0 0 -40.312,115.471 l -4.516,19.19 15.576,3.664 4.515,-19.19 A 562.317,562.317 0 0 1 302.4,268.8 8,8 0 0 0 304,264 Z M 124,32 h 141.626 a 40,40 0 0 1 39.692,44.961 l -14.97,119.76 -24.853,-29.823 13.66,-27.32 a 7.999,7.999 0 0 0 -4.184,-11.006 l -40,-16 a 8,8 0 0 0 -9.117,2.306 L 200,145.903 V 64 a 8,8 0 0 0 -8,-8 h -68 a 12,12 0 0 1 0,-24 z m -4,144 h 6.041 a 38.04,38.04 0 0 1 32.455,18.375 7.33,7.33 0 1 1 -12.84,7.05 l -2.5,-5.003 A 8,8 0 0 0 136,192 h -16 z m 0,88 v -20.687 l 2.343,2.344 A 7.999,7.999 0 0 0 128,248 h 76.687 l -16,16 z m 53.84,102.847 -15.144,-5.048 -5.567,-22.27 37.41,-24.94 16.412,19.147 z M 236.73,343.892 209.394,312 h 44.885 q -9.299,15.685 -17.549,31.892 z M 288,261.343 q -12.675,17.06 -24,34.843 V 296 H 200 V 275.313 L 245.657,229.657 234.343,218.343 220.687,232 H 131.314 L 120,220.686 V 208 h 11.056 l 0.29,0.58 a 23.166,23.166 0 0 0 20.773,12.911 23.692,23.692 0 0 0 5.75,-0.712 23.33,23.33 0 0 0 14.347,-34.635 A 54.12,54.12 0 0 0 126.04,160 H 85.394 L 132.778,72 H 184 v 96 a 8,8 0 0 0 14.146,5.122 l 36.28,-43.536 26.53,10.613 -12.111,24.223 a 8,8 0 0 0 1.009,8.7 L 288,218.896 Z m 144,11.112 v -23.157 l 15.329,-45.986 a 16.16,16.16 0 0 0 -25.027,-18.038 8.042,8.042 0 0 1 -10.458,-0.743 l -8.417,-8.418 a 16.178,16.178 0 0 0 -22.854,0 l -8.417,8.418 a 8.042,8.042 0 0 1 -10.458,0.742 16.16,16.16 0 0 0 -25.027,18.039 L 352,249.298 v 23.164 a 72.065,72.065 0 0 0 -63.443,62.548 l 15.877,1.98 A 56.043,56.043 0 0 1 360,288 h 64 a 56.064,56.064 0 0 1 56,56 v 104 a 32.036,32.036 0 0 1 -32,32 v 16 a 48.054,48.054 0 0 0 48,-48 V 344 A 72.095,72.095 0 0 0 432,272.455 Z M 368,256 h 48 v 16 h -48 z m -16.181,-57.848 c 0.052,-0.064 0.154,-0.141 0.15,-0.16 a 0.626,0.626 0 0 1 0.13,0.082 24.118,24.118 0 0 0 31.37,-2.23 l 8.418,-8.417 a 0.16,0.16 0 0 1 0.226,0 l 8.418,8.417 a 24.118,24.118 0 0 0 31.37,2.23 c 0.041,-0.031 0.073,-0.05 0.085,-0.062 0.073,0.027 0.17,0.092 0.195,0.092 0.004,0 0.044,-0.08 -0.031,0.148 L 418.234,240 H 400 v -24 h -16 v 24 H 365.766 L 351.85,198.252 c -0.016,-0.048 -0.025,-0.084 -0.031,-0.1 z"
       id="path4"
       inkscape:connector-curvature="0" />
    <path
       d="M 424,352 H 280 a 8,8 0 0 0 -8,8 v 128 a 8,8 0 0 0 8,8 h 144 a 8,8 0 0 0 8,-8 V 360 a 8,8 0 0 0 -8,-8 z m -26.493,48 a 48.08,48.08 0 0 0 -20.828,32 H 376 v -64 h 0.68 a 48.08,48.08 0 0 0 20.827,32 z M 416,409.013 V 432 H 393.013 A 32.12,32.12 0 0 1 416,409.013 Z m 0,-18.026 A 32.12,32.12 0 0 1 393.013,368 H 416 Z M 360,368 v 64 h -16 v -64 z m -72,41.013 A 32.12,32.12 0 0 1 310.987,432 H 288 Z M 327.32,432 a 48.08,48.08 0 0 0 -20.827,-32 48.08,48.08 0 0 0 20.828,-32 H 328 v 64 z M 310.987,368 A 32.12,32.12 0 0 1 288,390.987 V 368 Z M 288,448 h 40 v 32 h -40 z m 56,32 v -32 h 16 v 32 z m 32,0 v -32 h 40 v 32 z"
       id="path6"
       inkscape:connector-curvature="0" />
  </g>
</svg>
