<?xml version="1.0" encoding="UTF-8" standalone="no"?>
<svg
   xmlns:dc="http://purl.org/dc/elements/1.1/"
   xmlns:cc="http://creativecommons.org/ns#"
   xmlns:rdf="http://www.w3.org/1999/02/22-rdf-syntax-ns#"
   xmlns:svg="http://www.w3.org/2000/svg"
   xmlns="http://www.w3.org/2000/svg"
   xmlns:sodipodi="http://sodipodi.sourceforge.net/DTD/sodipodi-0.dtd"
   xmlns:inkscape="http://www.inkscape.org/namespaces/inkscape"
   viewBox="0 0 60.000023 60"
   width="480.00018"
   height="480"
   version="1.1"
   id="svg8"
   sodipodi:docname="uniform_gr.svg"
   style="fill:#efefef"
   inkscape:version="0.92.4 (5da689c313, 2019-01-14)">
  <metadata
     id="metadata14">
    <rdf:RDF>
      <cc:Work
         rdf:about="">
        <dc:format>image/svg+xml</dc:format>
        <dc:type
           rdf:resource="http://purl.org/dc/dcmitype/StillImage" />
      </cc:Work>
    </rdf:RDF>
  </metadata>
  <defs
     id="defs12" />
  <sodipodi:namedview
     pagecolor="#ffffff"
     bordercolor="#666666"
     borderopacity="1"
     objecttolerance="10"
     gridtolerance="10"
     guidetolerance="10"
     inkscape:pageopacity="0"
     inkscape:pageshadow="2"
     inkscape:window-width="2160"
     inkscape:window-height="1346"
     id="namedview10"
     showgrid="false"
     inkscape:zoom="0.4609375"
     inkscape:cx="240.00019"
     inkscape:cy="240"
     inkscape:window-x="-11"
     inkscape:window-y="-11"
     inkscape:window-maximized="1"
     inkscape:current-layer="svg8" />
  <path
     d="m 14.000023,40.414 2.586,2.586 h 7.828 l 2.586,-2.586 V 31 h -13 z m 2,-7.414 h 9 v 2 h -9 z m 0,4 h 9 v 2.586 l -1.414,1.414 h -6.172 l -1.414,-1.414 z m 17,3.414 2.586,2.586 h 7.828 l 2.586,-2.586 V 31 h -13 z m 2,-7.414 h 9 v 2 h -9 z m 0,4 h 9 v 2.586 l -1.414,1.414 h -6.172 l -1.414,-1.414 z m -21,-18 h 2 v 2 h -2 z m 30,0 h 2 v 2 h -2 z"
     id="path2"
     inkscape:connector-curvature="0" />
  <path
     d="m 55.974023,12.771 a 1.011,1.011 0 0 0 -0.267,-0.478 l -6,-6 a 1,1 0 0 0 -0.434,-0.247 V 6.038 l -7,-2 A 1.02,1.02 0 0 0 42.000023,4 h -2.5 l -4.887,-3.79 A 1,1 0 0 0 34.000023,0 h -8 a 1,1 0 0 0 -0.613,0.21 l -4.887,3.79 h -2.5 a 1.02,1.02 0 0 0 -0.275,0.038 l -7,2 v 0.008 a 0.991,0.991 0 0 0 -0.434,0.247 l -5.9999996,6 a 1.011,1.011 0 0 0 -0.267,0.478 l -3.99999997,17 A 1.038,1.038 0 0 0 2.3428814e-5,30 V 57 A 1,1 0 0 0 1.0000234,58 h 8.9999996 v 1 a 1,1 0 0 0 1,1 h 16 a 1,1 0 0 0 0.8,-0.4 l 2.2,-2.933 2.2,2.933 a 1,1 0 0 0 0.8,0.4 h 16 a 1,1 0 0 0 1,-1 v -1 h 9 a 1,1 0 0 0 1,-1 V 30 a 1.038,1.038 0 0 0 -0.026,-0.229 z m -51.4149996,6.469 1.441,0.481 v 1.891 l -1.854,-0.618 z m -0.872,3.709 2.313,0.772 v 1.891 l -2.726,-0.912 z M 10.000023,56 H 2.0000234 v -2 h 7.9999996 z m 0,-4 H 2.0000234 V 30.116 l 0.814,-3.458 3.87,1.29 a 0.983,0.983 0 0 0 0.316,0.052 1,1 0 0 0 1,-1 v -8 a 1,1 0 0 0 -0.684,-0.948 l -2.3,-0.766 0.889,-3.78 4.0949996,-4.092 z m 28.388,-46.328 4.869,8.328 h -4.257 a 1,1 0 0 0 -0.707,1.707 l 2.019,2.019 -9.312,4.656 V 18.3 l 5.832,-8.748 a 1,1 0 0 0 0.063,-1 L 33.618023,2 Z M 28.618023,2 h 2.764 l 1,2 h -4.764 z m -16.618,5.755 6.14,-1.755 h 0.96 l -1.856,3.175 -5.244,1.499 z m 17,46.912 -2.5,3.333 h -14.5 V 12.755 l 3.787,-1.082 -1.65,2.827 a 1,1 0 0 0 0.863,1.5 h 4.131 l -0.963,1.445 a 1,1 0 0 0 0.353,1.433 l 7.557,4.122 h -12.078 v 6 h 13 v -5.5 l 2,1.091 z m -4,-29.667 v 2 h -9 v -2 z m 4,-2.685 -8.562,-4.669 1.394,-2.091 A 1,1 0 0 0 21.000023,14 h -4.257 l 4.869,-8.328 4.73,-3.672 h 0.04 l -3.277,6.553 a 1,1 0 0 0 0.063,1 l 5.832,8.747 z m -3.846,-13.387 1.464,-2.928 h 6.764 l 1.464,2.928 -4.846,7.272 z M 48.000023,58 h -14.5 l -2.5,-3.333 V 24.618 l 3,-1.5 V 29 h 12 v -6 h -11.764 l 8.211,-4.1 a 1,1 0 0 0 0.26,-1.6 l -1.293,-1.3 h 3.586 a 1,1 0 0 0 0.863,-1.5 l -1.871,-3.2 4.008,0.568 z m -12,-31 v -2 h 3 v 2 z m 5,0 v -2 h 3 v 2 z m 7,-17.153 -5.3,-0.757 -1.8,-3.09 h 0.963 l 6.137,1.755 z m 8.314,13.1 0.412,1.754 -2.726,0.911 v -1.891 z m -0.46,-1.955 -1.854,0.62 v -1.891 l 1.441,-0.481 z m 2.146,35.008 h -8 v -2 h 8 z m 0,-4 h -8 V 9.414 l 4.092,4.092 0.889,3.78 -2.3,0.766 a 1,1 0 0 0 -0.681,0.948 v 8 a 1,1 0 0 0 1,1 0.983,0.983 0 0 0 0.316,-0.052 l 3.87,-1.29 0.413,1.755 -1.937,0.646 c -1.93,0.693 -3.662,1.515 -3.662,3.941 v 2 a 4.353,4.353 0 0 0 1.827,3.712 3.43,3.43 0 0 0 1.9,0.567 4.29,4.29 0 0 0 1.721,-0.384 l 0.552,-0.277 z m 0,-15.618 -1.4,0.7 a 1.7,1.7 0 0 1 -1.677,-0.046 2.379,2.379 0 0 1 -0.923,-2.036 v -2 c 0,-0.866 0.211,-1.3 2.316,-2.052 l 1.684,-0.561 z"
     id="path4"
     inkscape:connector-curvature="0" />
  <path
     d="m 44.000023,54 h 2 v 2 h -2 z m -4,0 h 2 v 2 h -2 z"
     id="path6"
     inkscape:connector-curvature="0" />
</svg>
