<svg height="512" width="512" xmlns="http://www.w3.org/2000/svg"><circle cx="256" cy="256" fill="#fc7c54" r="256"/><path d="M512 256c0 141.5-114.51 256-256 256V0c141.5 0 256 114.51 256 256z" fill="#f35743"/><circle cx="256" cy="256" fill="#fce2c3" r="226"/><path d="M482 256c0 124.62-101.38 226-226 226V30c124.62 0 226 101.38 226 226z" fill="#fecfa0"/><path d="M290.433 242.501c5.565-7.334 8.875-16.468 8.875-26.363 0-24.098-19.605-43.703-43.703-43.703s-43.703 19.605-43.703 43.703c0 9.895 3.31 19.029 8.875 26.363-11.935 9.981-19.543 24.972-19.543 41.711 0 29.98 24.391 54.371 54.371 54.371s54.371-24.391 54.371-54.371c0-16.739-7.609-31.73-19.543-41.711zm-48.532-26.363c0-7.556 6.147-13.703 13.703-13.703s13.703 6.147 13.703 13.703c0 7.557-6.147 13.704-13.703 13.704s-13.703-6.148-13.703-13.704zm13.703 92.445c-13.438 0-24.371-10.933-24.371-24.371s10.933-24.37 24.371-24.37 24.371 10.933 24.371 24.37c.001 13.438-10.932 24.371-24.371 24.371z" fill="#fc7c54"/><path d="M290.43 242.5a43.439 43.439 0 008.88-26.36c0-23.97-19.39-43.49-43.31-43.71v30.01c7.38.21 13.31 6.28 13.31 13.7s-5.93 13.48-13.31 13.69v30.02c13.26.21 23.98 11.05 23.98 24.36s-10.72 24.15-23.98 24.36v30c29.8-.21 53.98-24.51 53.98-54.36 0-16.74-7.61-31.73-19.55-41.71z" fill="#f35743"/><path d="M156.05 173.417h-29.1c-8.284 0-15 6.716-15 15s6.716 15 15 15h14.1v121.148c0 8.284 6.716 15 15 15s15-6.716 15-15V188.417c0-8.284-6.716-15-15-15z" fill="#fc7c54"/><path d="M415.05 207.413h-20v-19.979c0-8.284-6.716-15-15-15s-15 6.716-15 15v19.979h-20c-8.284 0-15 6.716-15 15s6.716 15 15 15h20v20.043c0 8.284 6.716 15 15 15s15-6.716 15-15v-20.043h20c8.284 0 15-6.716 15-15s-6.716-15-15-15z" fill="#f35743"/></svg>