<?xml version="1.0" encoding="UTF-8" standalone="no"?>
<svg
   xmlns:dc="http://purl.org/dc/elements/1.1/"
   xmlns:cc="http://creativecommons.org/ns#"
   xmlns:rdf="http://www.w3.org/1999/02/22-rdf-syntax-ns#"
   xmlns:svg="http://www.w3.org/2000/svg"
   xmlns="http://www.w3.org/2000/svg"
   xmlns:sodipodi="http://sodipodi.sourceforge.net/DTD/sodipodi-0.dtd"
   xmlns:inkscape="http://www.inkscape.org/namespaces/inkscape"
   viewBox="0 0 512.00018 457.12201"
   version="1.1"
   id="svg74"
   sodipodi:docname="food.svg"
   width="512.00018"
   height="457.12201"
   inkscape:version="0.92.4 (5da689c313, 2019-01-14)">
  <metadata
     id="metadata80">
    <rdf:RDF>
      <cc:Work
         rdf:about="">
        <dc:format>image/svg+xml</dc:format>
        <dc:type
           rdf:resource="http://purl.org/dc/dcmitype/StillImage" />
      </cc:Work>
    </rdf:RDF>
  </metadata>
  <defs
     id="defs78" />
  <sodipodi:namedview
     pagecolor="#ffffff"
     bordercolor="#666666"
     borderopacity="1"
     objecttolerance="10"
     gridtolerance="10"
     guidetolerance="10"
     inkscape:pageopacity="0"
     inkscape:pageshadow="2"
     inkscape:window-width="716"
     inkscape:window-height="489"
     id="namedview76"
     showgrid="false"
     inkscape:zoom="0.4609375"
     inkscape:cx="256"
     inkscape:cy="228.561"
     inkscape:window-x="0"
     inkscape:window-y="0"
     inkscape:window-maximized="0"
     inkscape:current-layer="svg74" />
  <g
     id="g118"
     transform="translate(0,-27.439)">
    <path
       id="path2"
       d="m 60.802,73.52 h 51.775 v 34.549 H 60.802 Z"
       inkscape:connector-curvature="0"
       style="fill:#48c1e1" />
    <path
       id="path4"
       d="m 123.256,69.717 c 0,2.833 -2.317,5.151 -5.15,5.151 H 55.273 c -2.833,0 -5.15,-2.318 -5.15,-5.151 V 32.59 c 0,-2.833 2.317,-5.151 5.15,-5.151 h 62.832 c 2.833,0 5.15,2.318 5.15,5.151 z"
       inkscape:connector-curvature="0"
       style="fill:#046699" />
    <path
       id="path6"
       d="M 71.606,69.717 V 32.59 c 0,-2.833 2.317,-5.151 5.151,-5.151 H 55.273 c -2.833,0 -5.15,2.318 -5.15,5.151 v 37.127 c 0,2.833 2.317,5.151 5.15,5.151 h 21.484 c -2.833,0 -5.151,-2.318 -5.151,-5.151 z"
       inkscape:connector-curvature="0"
       style="opacity:0.1" />
    <path
       id="path8"
       d="m 44.752,353.582 a 0.998,0.998 0 0 0 0.49,-1.416 c -0.429,-0.758 -0.646,-1.503 -0.646,-2.213 0,-5.512 12.229,-11.413 30.436,-11.413 5.859,0 11.567,0.651 16.507,1.884 a 0.996,0.996 0 0 0 0.949,-0.263 0.996,0.996 0 0 0 0.263,-0.949 c -3.177,-12.681 -4.996,-25.714 -5.423,-39.033 -0.006,-0.155 -0.016,-0.31 -0.021,-0.466 a 190.852,190.852 0 0 1 -0.087,-5.72 4.181,4.181 0 0 1 4.172,-4.182 h 9.035 a 0.999,0.999 0 0 0 0.994,-1.111 30.98,30.98 0 0 1 -0.217,-3.485 c 0,-14.09 9.01,-26.396 22.421,-30.621 a 0.999,0.999 0 0 0 0.6,-1.386 30.239,30.239 0 0 1 -2.54,-7.893 c -2.336,-13.481 4.717,-26.903 17.15,-32.64 0.47,-0.217 0.697,-0.757 0.523,-1.245 a 30.111,30.111 0 0 1 -1.316,-4.989 c -1.896,-10.938 2.382,-21.546 10.306,-28.263 v -42.945 c 0,-15.81 -12.905,-28.745 -28.68,-28.745 H 53.709 c -15.773,0 -28.679,12.935 -28.679,28.745 V 365.51 c 5.747,-4.844 12.372,-8.9 19.722,-11.928 z"
       inkscape:connector-curvature="0"
       style="fill:#a2dff9" />
    <path
       id="path10"
       d="m 123.626,254.592 a 0.999,0.999 0 0 0 0.6,-1.386 30.239,30.239 0 0 1 -2.54,-7.893 c -2.336,-13.481 4.717,-26.903 17.15,-32.64 0.47,-0.217 0.697,-0.757 0.523,-1.245 a 30.111,30.111 0 0 1 -1.316,-4.989 c -1.896,-10.938 2.382,-21.546 10.306,-28.263 V 158.84 H 25.03 v 106.402 h 83.119 a 31.964,31.964 0 0 1 15.477,-10.65 z"
       inkscape:connector-curvature="0"
       style="fill:#046699" />
    <path
       id="path12"
       d="M 56,341.114 V 135.232 c 0,-15.81 12.905,-28.745 28.679,-28.745 h -30.97 c -15.773,0 -28.679,12.935 -28.679,28.745 V 365.51 c 5.747,-4.844 12.372,-8.899 19.722,-11.928 a 0.998,0.998 0 0 0 0.49,-1.416 c -0.429,-0.758 -0.646,-1.503 -0.646,-2.213 0.001,-3.239 4.23,-6.608 11.404,-8.839 z"
       inkscape:connector-curvature="0"
       style="opacity:0.1" />
    <path
       id="path14"
       d="m 242.54,188.248 c 0.289,1.668 0.438,3.398 0.441,5.143 a 1,1 0 0 0 0.912,0.995 c 12.801,1.125 23.504,10.244 26.636,22.693 a 1,1 0 0 0 1.652,0.487 c 5.216,-4.865 11.707,-7.789 18.772,-8.455 a 0.998,0.998 0 0 0 0.905,-0.963 c 0.455,-14.023 6.157,-27.21 16.057,-37.131 0.207,-0.207 0.423,-0.4 0.633,-0.604 -2.19,-13.962 -8.624,-27.379 -19.336,-38.115 a 5.391,5.391 0 0 0 -7.632,0 l -43.896,43.997 a 30.225,30.225 0 0 1 4.856,11.953 z"
       inkscape:connector-curvature="0"
       style="fill:#ef5050" />
    <g
       id="g18"
       style="fill:#c0272d">
      <path
         id="path16"
         d="m 270.528,217.079 a 1,1 0 0 0 1.652,0.487 31.977,31.977 0 0 1 8.48,-5.695 7.473,7.473 0 0 0 -1.872,-3.137 l -7.281,-7.299 a 7.5,7.5 0 0 0 -10.606,-0.013 c -0.022,0.021 -0.039,0.044 -0.06,0.066 a 30.13,30.13 0 0 1 9.687,15.591 z m 15.597,-22.2 h -10.296 c -4.143,0 -7.5,-3.358 -7.5,-7.5 0,-4.142 3.357,-7.5 7.5,-7.5 h 10.296 a 7.5,7.5 0 0 1 7.5,7.5 c 0,4.143 -3.357,7.5 -7.5,7.5 z m -11.749,-20.72 a 7.501,7.501 0 0 1 -5.309,-12.798 l 7.284,-7.298 a 7.500285,7.500285 0 0 1 10.617,10.597 l -7.284,7.298 a 7.48,7.48 0 0 1 -5.308,2.201 z"
         inkscape:connector-curvature="0" />
    </g>
    <path
       id="path20"
       d="m 368.404,158.862 a 1.764,1.764 0 0 0 -0.998,-1.001 55.792,55.792 0 0 0 -60.201,12.449 56.052,56.052 0 0 0 -16.371,38.811 32.26,32.26 0 0 1 3.155,-0.157 c 15.554,0 28.547,11.17 31.431,25.926 a 55.806,55.806 0 0 0 30.565,-15.69 c 15.799,-15.837 20.674,-39.52 12.419,-60.338 z"
       inkscape:connector-curvature="0"
       style="fill:#89c947" />
    <path
       id="path22"
       d="m 341.458,184.871 a 7.498,7.498 0 0 0 -10.606,0.012 l -25.944,26.003 a 32.127,32.127 0 0 1 12.694,8.514 l 23.869,-23.923 a 7.498,7.498 0 0 0 -0.013,-10.606 z"
       inkscape:connector-curvature="0"
       style="fill:#d5e962" />
    <g
       id="g26"
       style="fill:#ffc502">
      <path
         id="path24"
         d="m 379.175,244.754 a 27.39,27.39 0 0 1 0.396,4.629 c 10e-4,0.518 0.397,0.949 0.912,0.995 4.059,0.357 7.929,1.615 11.502,3.739 a 1,1 0 0 0 1.265,-0.202 50.08,50.08 0 0 1 2.304,-2.489 c 6.036,-6.05 13.335,-10.368 21.294,-12.722 A 33.174,33.174 0 0 0 418,230.035 c 0,-18.283 -14.788,-33.106 -33.031,-33.106 -15.558,0 -28.597,10.785 -32.099,25.3 a 27.12,27.12 0 0 1 26.305,22.525 z M 152.809,289.091 A 51.54,51.54 0 0 1 146.53,269.949 30.126,30.126 0 0 1 124.271,253.35 c -13.884,3.918 -24.065,16.694 -24.065,31.862 0,1.314 0.1,2.604 0.249,3.878 h 52.354 z"
         inkscape:connector-curvature="0" />
    </g>
    <path
       id="path28"
       d="m 404.894,272.816 a 26.978,26.978 0 0 1 -2.216,16.275 h 42.444 a 51.521,51.521 0 0 0 5.929,-48.886 1.637,1.637 0 0 0 -0.917,-0.919 51.237,51.237 0 0 0 -55.288,11.433 51.605,51.605 0 0 0 -3.003,3.309 c 6.736,3.956 11.653,10.721 13.051,18.788 z"
       inkscape:connector-curvature="0"
       style="fill:#89c947" />
    <path
       id="path30"
       d="m 402.678,289.091 h 9.275 l 14.793,-14.826 a 7.498,7.498 0 0 0 -0.013,-10.606 7.498,7.498 0 0 0 -10.606,0.012 l -10.983,11.008 a 26.942,26.942 0 0 1 -2.466,14.412 z"
       inkscape:connector-curvature="0"
       style="fill:#d5e962" />
    <path
       id="path32"
       d="m 271.677,217.658 c -3.009,-13.47 -14.411,-23.102 -27.696,-24.269 a 31.32,31.32 0 0 0 -0.455,-5.313 c -2.946,-16.996 -19.133,-28.375 -36.153,-25.412 -8.835,1.538 -16.148,6.643 -20.74,13.566 -6.649,-4.967 -15.254,-7.3 -24.089,-5.763 -17.023,2.964 -28.432,19.146 -25.484,36.142 0.308,1.785 0.77,3.505 1.359,5.155 -12.56,5.795 -20.187,19.466 -17.717,33.719 2.334,13.473 12.993,23.406 25.791,25.472 -1.24,-8.592 -0.245,-17.46 3.076,-25.837 a 0.64,0.64 0 0 1 0.359,-0.36 50.085,50.085 0 0 1 18.61,-3.577 c 13.441,0 26.084,5.251 35.599,14.787 a 51.103,51.103 0 0 1 1.991,2.128 68.907,68.907 0 0 1 -0.808,-10.515 c 0,-2.43 1.971,-4.407 4.394,-4.407 h 52.364 A 32.545,32.545 0 0 1 262,241.07 c 0,-9.142 3.698,-17.42 9.677,-23.412 z"
       inkscape:connector-curvature="0"
       style="fill:#368c0e" />
    <g
       id="g36"
       style="fill:#89c947">
      <path
         id="path34"
         d="m 162.155,220.587 -0.13,-10e-4 a 7.5,7.5 0 0 1 -7.372,-7.626 c 0.22,-12.985 10.87,-23.408 23.82,-23.408 l 0.381,0.003 a 23.874,23.874 0 0 1 17.192,7.741 7.501,7.501 0 0 1 -11.076,10.117 8.698,8.698 0 0 0 -6.351,-2.859 c -4.875,-0.079 -8.887,3.809 -8.969,8.661 a 7.5,7.5 0 0 1 -7.495,7.372 z m 41.404,12.905 a 7.5,7.5 0 0 1 -7.031,-10.11 c 4.184,-11.279 16.771,-17.067 28.063,-12.902 a 21.899,21.899 0 0 1 12.521,11.933 7.5,7.5 0 0 1 -3.969,9.836 7.5,7.5 0 0 1 -9.836,-3.969 6.754,6.754 0 0 0 -3.91,-3.728 c -3.547,-1.308 -7.493,0.508 -8.805,4.046 a 7.503,7.503 0 0 1 -7.033,4.894 z"
         inkscape:connector-curvature="0" />
    </g>
    <path
       id="path38"
       d="m 325.954,243.093 h -0.274 c -0.002,0.07 -0.002,0.141 -0.005,0.211 h 10.046 a 5.401,5.401 0 0 1 5.396,5.407 c 0,15.07 -4.864,29.004 -13.057,40.38 h 75.696 c 2.263,-4.98 3.126,-10.655 2.123,-16.446 -2.23,-12.872 -12.867,-22.171 -25.308,-23.264 a 28.405,28.405 0 0 0 -0.411,-4.798 c -2.661,-15.352 -17.281,-25.629 -32.653,-22.953 -7.98,1.391 -14.587,6 -18.733,12.255 a 28.316,28.316 0 0 0 -4.288,-2.63 32.054,32.054 0 0 1 1.537,9.816 c -0.001,0.66 -0.023,1.328 -0.069,2.022 z"
       inkscape:connector-curvature="0"
       style="fill:#368c0e" />
    <path
       id="path40"
       d="m 326.943,243.174 c 0.046,-0.696 0.079,-1.396 0.079,-2.104 0,-18.285 -14.789,-33.107 -33.032,-33.107 -18.242,0 -33.031,14.823 -33.031,33.107 0,0.708 0.033,1.408 0.078,2.104 z"
       inkscape:connector-curvature="0"
       style="fill:#f7931e" />
    <path
       id="path42"
       d="m 204.845,255.263 a 51.241,51.241 0 0 0 -55.288,-11.433 1.637,1.637 0 0 0 -0.918,0.92 51.528,51.528 0 0 0 3.036,44.341 h 68.08 c -6.896,-9.186 -11.571,-20.134 -13.212,-32.042 a 51.814,51.814 0 0 0 -1.698,-1.786 z"
       inkscape:connector-curvature="0"
       style="fill:#89c947" />
    <path
       id="path44"
       d="m 183.202,289.091 h 21.189 l -20.829,-20.876 a 7.5,7.5 0 0 0 -10.606,-0.012 7.498,7.498 0 0 0 -0.013,10.606 z"
       inkscape:connector-curvature="0"
       style="fill:#d5e962" />
    <path
       id="path46"
       d="m 328.566,289.091 c 8.689,-11.576 13.87,-25.941 13.87,-41.51 a 5.4,5.4 0 0 0 -5.396,-5.407 H 209.714 a 5.4,5.4 0 0 0 -5.394,5.407 c 0,15.569 5.181,29.934 13.871,41.51 z"
       inkscape:connector-curvature="0"
       style="fill:#ef5050" />
    <g
       id="g50"
       style="fill:#c0272d">
      <path
         id="path48"
         d="m 281.15,289.091 v -5.188 c 0,-4.142 -3.357,-7.5 -7.5,-7.5 -4.143,0 -7.5,3.358 -7.5,7.5 v 5.188 z m 14.389,0 h 11.663 a 7.5,7.5 0 0 0 -0.496,-10.045 l -7.281,-7.298 a 7.5,7.5 0 0 0 -10.606,-0.013 7.5,7.5 0 0 0 -0.013,10.606 z m -44.96,0 6.732,-6.748 a 7.5,7.5 0 0 0 -10.618,-10.595 l -7.282,7.298 a 7.5,7.5 0 0 0 -0.498,10.044 z M 239.048,268.865 H 228.75 c -4.143,0 -7.5,-3.358 -7.5,-7.5 0,-4.142 3.357,-7.5 7.5,-7.5 h 10.298 a 7.5,7.5 0 0 1 0,15 z m 78.958,0 h -10.299 a 7.5,7.5 0 0 1 0,-15 h 10.299 a 7.5,7.5 0 0 1 0,15 z"
         inkscape:connector-curvature="0" />
    </g>
    <path
       id="path52"
       d="m 92.98,340.804 a 1.001,1.001 0 0 0 1.271,-0.962 v -12.693 c 0,-3.584 2.916,-6.5 6.5,-6.5 3.584,0 6.5,2.916 6.5,6.5 v 12.693 a 0.998,0.998 0 0 0 1.271,0.962 c 5.261,-1.482 11.468,-2.266 17.947,-2.266 18.205,0 30.435,5.901 30.435,11.413 0,0.712 -0.217,1.457 -0.646,2.215 a 1,1 0 0 0 0.489,1.417 c 23.309,9.608 39.826,29.989 43.107,53.188 a 1.004,1.004 0 0 0 0.99,0.86 c 0.12,0 0.24,-0.022 0.355,-0.065 L 359.074,347.59 a 26.748,26.748 0 0 1 9.529,-1.748 c 4.579,0 9.108,1.181 13.099,3.414 6.94,3.884 11.749,10.583 13.194,18.378 l 1.375,7.425 a 0.999,0.999 0 0 0 1.492,0.679 l 53.08,-31.334 c 4.561,-16.253 6.873,-33.105 6.873,-50.414 a 5.177,5.177 0 0 0 -5.172,-5.182 H 91.393 a 5.177,5.177 0 0 0 -5.172,5.182 c 0,15.951 1.972,31.513 5.847,46.577 0.303,0.08 0.615,0.153 0.912,0.237 z"
       inkscape:connector-curvature="0"
       style="fill:#e6e9ed" />
    <path
       id="path54"
       d="m 92.98,340.804 a 1.001,1.001 0 0 0 1.271,-0.962 v -12.693 c 0,-3.584 2.916,-6.5 6.5,-6.5 3.584,0 6.5,2.916 6.5,6.5 v 12.693 a 0.998,0.998 0 0 0 1.271,0.962 c 4.503,-1.269 9.702,-2.021 15.169,-2.212 -3.544,-14.448 -5.339,-29.348 -5.339,-44.602 a 5.177,5.177 0 0 1 5.172,-5.182 H 91.393 a 5.177,5.177 0 0 0 -5.172,5.182 c 0,15.951 1.972,31.513 5.847,46.577 0.303,0.08 0.615,0.153 0.912,0.237 z"
       inkscape:connector-curvature="0"
       style="opacity:0.1" />
    <path
       id="path56"
       d="m 100.75,344.373 c 2.054,-1.153 4.598,-2.158 7.502,-2.977 v -14.248 c 0,-4.142 -3.357,-7.5 -7.5,-7.5 -4.143,0 -7.5,3.358 -7.5,7.5 v 14.248 c 2.904,0.818 5.445,1.824 7.498,2.977 z"
       inkscape:connector-curvature="0"
       style="fill:#89c947" />
    <path
       id="path58"
       d="m 177.369,483.55 -27.088,0.011 h -0.01 c -12.895,-10e-4 -23.952,-9.165 -26.29,-21.792 l -0.267,-1.436 c -2.339,-12.629 4.711,-25.12 16.764,-29.7 l 60.513,-22.988 c -3.116,-24.924 -20.68,-45.798 -44.798,-55.375 -2.34,3.933 -10.398,7.357 -20.89,8.588 a 1,1 0 0 0 -0.509,1.774 c 5.438,4.35 8.854,8.936 9.139,12.269 0.104,1.208 -0.193,2.188 -0.909,2.996 -1.275,1.44 -3.783,2.201 -7.251,2.201 h -0.001 c -6.752,0 -15.882,-2.823 -24.424,-7.551 -3.762,-2.085 -7.109,-4.362 -9.952,-6.771 a 1,1 0 0 0 -1.292,0 c -2.845,2.411 -6.192,4.689 -9.95,6.77 -8.542,4.729 -17.673,7.552 -24.425,7.552 -3.469,0 -5.976,-0.761 -7.251,-2.201 -0.716,-0.808 -1.014,-1.787 -0.91,-2.995 0.286,-3.333 3.702,-7.919 9.138,-12.27 a 1.001,1.001 0 0 0 -0.509,-1.774 C 55.702,359.627 47.643,356.201 45.307,352.266 18.657,362.846 0,387.216 0,415.601 c 0,38.086 33.581,68.96 75.004,68.96 H 179 c 1.123,0 0.254,-0.399 -1.631,-1.011 z"
       inkscape:connector-curvature="0"
       style="fill:#ef5050" />
    <path
       id="path60"
       d="m 32.45,415.601 c 0,-22.622 11.848,-42.699 30.148,-55.275 -8.714,-1.521 -15.231,-4.588 -17.292,-8.059 C 18.657,362.846 0,387.216 0,415.601 c 0,38.086 33.581,68.96 75.004,68.96 h 32.451 c -41.423,0 -75.005,-30.874 -75.005,-68.96 z"
       inkscape:connector-curvature="0"
       style="opacity:0.1" />
    <path
       id="path62"
       d="m 157.905,349.952 c 0,-6.856 -14.074,-12.413 -31.435,-12.413 -10.634,0 -20.032,2.087 -25.721,5.28 -5.685,-3.192 -15.082,-5.28 -25.718,-5.28 -17.36,0 -31.436,5.557 -31.436,12.413 0,5.626 9.486,10.375 22.483,11.9 -7.951,6.363 -11.592,13.05 -8.352,16.708 4.293,4.847 19.029,2.545 32.909,-5.139 3.897,-2.158 7.312,-4.508 10.112,-6.882 2.803,2.375 6.22,4.724 10.114,6.882 13.881,7.684 28.616,9.984 32.908,5.139 3.241,-3.658 -0.399,-10.345 -8.353,-16.708 13.006,-1.525 22.489,-6.274 22.489,-11.9 z"
       inkscape:connector-curvature="0"
       style="fill:#368c0e" />
    <path
       id="path64"
       d="m 511.884,394.361 -2.014,-10.864 c -0.692,-3.75 -4.309,-6.228 -8.075,-5.538 l -77.731,14.279 49.631,-33.177 a 6.903,6.903 0 0 0 2.958,-6.986 6.953,6.953 0 0 0 -0.779,-2.133 l -5.617,-9.948 a 6.915,6.915 0 0 0 -4.25,-3.285 6.95,6.95 0 0 0 -5.328,0.73 l -64.564,38.113 12.214,65.94 74.054,13.308 a 6.953,6.953 0 0 0 5.271,-1.184 6.9,6.9 0 0 0 2.816,-4.597 l 1.674,-11.231 c 0.116,-0.773 0.1,-1.537 -0.036,-2.265 a 6.918,6.918 0 0 0 -5.265,-5.477 l -58.252,-13.361 77.732,-14.28 c 3.768,-0.692 6.255,-4.292 5.561,-8.044 z"
       inkscape:connector-curvature="0"
       style="fill:#89c947" />
    <path
       id="path66"
       d="m 122.998,461.951 c 2.427,13.104 13.903,22.614 27.283,22.609 l 233.967,-0.09 a 27.779,27.779 0 0 0 21.308,-9.954 27.533,27.533 0 0 0 5.956,-22.678 l -15.63,-84.387 c -1.495,-8.065 -6.51,-15.051 -13.689,-19.069 -7.179,-4.018 -15.778,-4.649 -23.472,-1.728 l -218.598,83.043 c -12.502,4.751 -19.818,17.712 -17.392,30.817 z"
       inkscape:connector-curvature="0"
       style="fill:#f7931e" />
    <path
       id="path68"
       d="m 122.998,461.951 a 27.477,27.477 0 0 0 1.754,5.747 28.883,28.883 0 0 1 14.944,-12.849 l 228.289,-86.725 a 29.076,29.076 0 0 1 24.512,1.804 28.96,28.96 0 0 1 4.406,3.045 l -1.021,-5.521 c -1.495,-8.065 -6.51,-15.051 -13.689,-19.069 -7.179,-4.018 -15.778,-4.649 -23.472,-1.728 l -218.598,83.043 c -12.502,4.751 -19.818,17.712 -17.392,30.817 z"
       inkscape:connector-curvature="0"
       style="opacity:0.1" />
    <g
       id="g72"
       style="fill:#ffc502">
      <path
         id="path70"
         d="m 370.837,449.389 a 7.5,7.5 0 0 0 -14.732,2.818 l 6.174,32.272 15.271,-0.006 z m -40.654,8.893 a 7.5,7.5 0 0 0 -14.74,2.778 l 4.418,23.435 15.263,-0.006 z m -39.744,-56.488 a 7.503,7.503 0 0 0 7.268,5.67 7.5,7.5 0 0 0 7.279,-9.334 l -7.139,-28.35 -14.118,5.364 z m -39.026,49.952 a 7.5000481,7.5000481 0 0 0 -14.762,2.662 l 5.431,30.117 15.241,-0.006 z m -75.661,-14.018 a 7.5,7.5 0 1 0 14.68,-3.081 l -4.677,-22.283 -14.194,5.392 z"
         inkscape:connector-curvature="0" />
    </g>
  </g>
</svg>
