<?xml version="1.0" encoding="iso-8859-1"?>
<!-- Generator: Adobe Illustrator 19.0.0, SVG Export Plug-In . SVG Version: 6.00 Build 0)  -->
<svg version="1.1" id="Capa_1" xmlns="http://www.w3.org/2000/svg" xmlns:xlink="http://www.w3.org/1999/xlink" x="0px" y="0px"
	 viewBox="0 0 512 512" style="enable-background:new 0 0 512 512;" xml:space="preserve">
<polygon style="fill:#825154;" points="26.483,512 203.034,512 203.034,172.712 26.483,264.828 "/>
<polygon style="fill:#736A76;" points="0,291.31 0,238.345 218.536,123.586 218.536,176.552 "/>
<polygon style="fill:#AE7A7B;" points="203.034,47.854 203.034,512 485.517,512 485.517,114.759 "/>
<polygon style="fill:#736A76;" points="512,79.448 176.552,0 176.552,52.966 512,132.414 "/>
<rect x="70.621" y="326.621" style="fill:#63393D;" width="88.276" height="185.379"/>
<rect x="256" y="308.966" style="fill:#F6D295;" width="176.552" height="203.034"/>
<g>
	<rect x="256" y="344.276" style="fill:#F9E4C7;" width="176.552" height="17.655"/>
	<rect x="256" y="388.414" style="fill:#F9E4C7;" width="176.552" height="17.655"/>
	<rect x="256" y="432.552" style="fill:#F9E4C7;" width="176.552" height="17.655"/>
</g>
<rect x="256" y="141.241" style="fill:#63393D;" width="176.552" height="35.31"/>
<rect x="273.655" y="176.552" style="fill:#7383BF;" width="141.241" height="88.276"/>
<g>
	<rect x="335.448" y="176.552" style="fill:#556080;" width="17.655" height="88.276"/>
	<rect x="273.655" y="211.862" style="fill:#556080;" width="141.241" height="17.655"/>
</g>
<path style="fill:#63393D;" d="M432.552,273.655H256c-4.873,0-8.828-3.955-8.828-8.828S251.127,256,256,256h176.552
	c4.873,0,8.828,3.955,8.828,8.828S437.425,273.655,432.552,273.655z"/>
<path style="fill:#FFFFFF;" d="M158.897,406.069h-35.31c-4.873,0-8.828,3.955-8.828,8.828v26.483c0,4.873,3.955,8.828,8.828,8.828
	s8.828-3.955,8.828-8.828v-17.655h26.483V406.069z"/>
<g>
</g>
<g>
</g>
<g>
</g>
<g>
</g>
<g>
</g>
<g>
</g>
<g>
</g>
<g>
</g>
<g>
</g>
<g>
</g>
<g>
</g>
<g>
</g>
<g>
</g>
<g>
</g>
<g>
</g>
</svg>
