<svg xmlns="http://www.w3.org/2000/svg" viewBox="0 0 512 512"><path fill="#825154" d="M26.483 512h176.551V172.712L26.483 264.828z"/><path fill="#736a76" d="M0 291.31v-52.965l218.536-114.759v52.966z"/><path fill="#ae7a7b" d="M203.034 47.854V512h282.483V114.759z"/><path fill="#736a76" d="M512 79.448L176.552 0v52.966L512 132.414z"/><path fill="#63393d" d="M70.621 326.621h88.276V512H70.621z"/><path fill="#f6d295" d="M256 308.966h176.552V512H256z"/><g fill="#f9e4c7"><path d="M256 344.276h176.552v17.655H256zM256 388.414h176.552v17.655H256zM256 432.552h176.552v17.655H256z"/></g><path fill="#63393d" d="M256 141.241h176.552v35.31H256z"/><path fill="#7383bf" d="M273.655 176.552h141.241v88.276H273.655z"/><g fill="#556080"><path d="M335.448 176.552h17.655v88.276h-17.655z"/><path d="M273.655 211.862h141.241v17.655H273.655z"/></g><path d="M432.552 273.655H256c-4.873 0-8.828-3.955-8.828-8.828S251.127 256 256 256h176.552c4.873 0 8.828 3.955 8.828 8.828s-3.955 8.827-8.828 8.827z" fill="#63393d"/><path d="M158.897 406.069h-35.31c-4.873 0-8.828 3.955-8.828 8.828v26.483c0 4.873 3.955 8.828 8.828 8.828s8.828-3.955 8.828-8.828v-17.655h26.483v-17.656z" fill="#fff"/></svg>