<?xml version="1.0" encoding="iso-8859-1"?>
<!-- Generator: Adobe Illustrator 19.0.0, SVG Export Plug-In . SVG Version: 6.00 Build 0)  -->
<svg version="1.1" id="Capa_1" xmlns="http://www.w3.org/2000/svg" xmlns:xlink="http://www.w3.org/1999/xlink" x="0px" y="0px"
	 viewBox="0 0 512 512" style="enable-background:new 0 0 512 512;" xml:space="preserve">
<g>
	<g>
		<path d="M209.229,129.236c-2.56-1.553-5.726-1.655-8.371-0.273L4.591,231.363C1.766,232.839,0,235.749,0,238.932v51.2
			c0,2.978,1.562,5.751,4.105,7.296c1.365,0.828,2.893,1.237,4.429,1.237c1.357,0,2.705-0.324,3.942-0.964l196.267-102.4
			c2.825-1.476,4.591-4.386,4.591-7.569v-51.2C213.333,133.546,211.772,130.781,209.229,129.236z M196.267,182.561l-179.2,93.491
			v-31.949l179.2-93.491V182.561z"/>
	</g>
</g>
<g>
	<g>
		<path d="M505.438,77.029l-324.267-76.8c-2.543-0.597-5.222-0.009-7.262,1.613c-2.048,1.613-3.243,4.079-3.243,6.69v51.2
			c0,3.951,2.714,7.39,6.571,8.303l324.267,76.8c0.649,0.154,1.306,0.23,1.963,0.23c1.903,0,3.772-0.64,5.291-1.843
			c2.048-1.613,3.243-4.079,3.243-6.69v-51.2C512,81.373,509.286,77.942,505.438,77.029z M494.933,125.738l-307.2-72.755V19.318
			l307.2,72.764V125.738z"/>
	</g>
</g>
<g>
	<g>
		<path d="M162.133,315.732H76.8c-4.71,0-8.533,3.823-8.533,8.533v179.2c0,4.71,3.823,8.533,8.533,8.533h85.333
			c4.71,0,8.533-3.823,8.533-8.533v-179.2C170.667,319.555,166.844,315.732,162.133,315.732z M153.6,494.932H85.333V332.799H153.6
			V494.932z"/>
	</g>
</g>
<g>
	<g>
		<path d="M479.838,122.162L206.771,57.488c-2.543-0.606-5.214,0-7.262,1.613s-3.243,4.079-3.243,6.69v437.675
			c0,4.71,3.823,8.533,8.533,8.533h273.067c4.71,0,8.533-3.823,8.542-8.533V130.465
			C486.409,126.514,483.686,123.075,479.838,122.162z M469.333,494.932h-256V76.586l256,60.629V494.932z"/>
	</g>
</g>
<g>
	<g>
		<path d="M209.229,180.428c-2.56-1.553-5.726-1.647-8.371-0.273L30.191,269.2c-2.825,1.476-4.591,4.386-4.591,7.569v226.697
			c0,4.71,3.823,8.533,8.533,8.533H204.8c4.71,0,8.533-3.823,8.533-8.533V187.732C213.333,184.745,211.772,181.981,209.229,180.428z
			 M196.267,494.932h-153.6V281.94l153.6-80.137V494.932z"/>
	</g>
</g>
<g>
	<g>
		<path d="M426.667,298.666H256c-4.71,0-8.533,3.823-8.533,8.533v196.267c0,4.71,3.823,8.533,8.533,8.533h170.667
			c4.71,0,8.533-3.823,8.533-8.533V307.199C435.2,302.488,431.377,298.666,426.667,298.666z M418.133,494.932h-153.6v-179.2h153.6
			V494.932z"/>
	</g>
</g>
<g>
	<g>
		<path d="M426.667,341.332H256c-4.71,0-8.533,3.823-8.533,8.533s3.823,8.533,8.533,8.533h170.667c4.71,0,8.533-3.823,8.533-8.533
			S431.377,341.332,426.667,341.332z"/>
	</g>
</g>
<g>
	<g>
		<path d="M426.667,383.999H256c-4.71,0-8.533,3.823-8.533,8.533c0,4.71,3.823,8.533,8.533,8.533h170.667
			c4.71,0,8.533-3.823,8.533-8.533C435.2,387.822,431.377,383.999,426.667,383.999z"/>
	</g>
</g>
<g>
	<g>
		<path d="M426.667,426.666H256c-4.71,0-8.533,3.823-8.533,8.533s3.823,8.533,8.533,8.533h170.667c4.71,0,8.533-3.823,8.533-8.533
			S431.377,426.666,426.667,426.666z"/>
	</g>
</g>
<g>
	<g>
		<path d="M162.133,401.066H128c-4.71,0-8.533,3.823-8.533,8.533s3.823,8.533,8.533,8.533h34.133c4.71,0,8.533-3.823,8.533-8.533
			S166.844,401.066,162.133,401.066z"/>
	</g>
</g>
<g>
	<g>
		<path d="M128,401.066c-4.71,0-8.533,3.823-8.533,8.533v25.6c0,4.71,3.823,8.533,8.533,8.533s8.533-3.823,8.533-8.533v-25.6
			C136.533,404.889,132.71,401.066,128,401.066z"/>
	</g>
</g>
<g>
	<g>
		<path d="M426.667,136.532H256c-4.71,0-8.533,3.823-8.533,8.533v34.133c0,4.71,3.823,8.533,8.533,8.533h170.667
			c4.71,0,8.533-3.823,8.533-8.533v-34.133C435.2,140.355,431.377,136.532,426.667,136.532z M418.133,170.666h-153.6v-17.067h153.6
			V170.666z"/>
	</g>
</g>
<g>
	<g>
		<path d="M264.533,170.666v102.4h153.6v-102.4H264.533z M401.067,255.999H281.6v-68.267h119.467V255.999z"/>
	</g>
</g>
<g>
	<g>
		<path d="M341.333,170.666c-4.71,0-8.533,3.823-8.533,8.533v85.333c0,4.71,3.823,8.533,8.533,8.533s8.533-3.823,8.533-8.533
			v-85.333C349.867,174.488,346.044,170.666,341.333,170.666z"/>
	</g>
</g>
<g>
	<g>
		<path d="M409.6,213.332H273.067c-4.71,0-8.533,3.823-8.533,8.533c0,4.71,3.823,8.533,8.533,8.533H409.6
			c4.71,0,8.533-3.823,8.533-8.533C418.133,217.155,414.31,213.332,409.6,213.332z"/>
	</g>
</g>
<g>
	<g>
		<path d="M426.667,255.999H256c-4.71,0-8.533,3.823-8.533,8.533c0,4.71,3.823,8.533,8.533,8.533h170.667
			c4.71,0,8.533-3.823,8.533-8.533C435.2,259.822,431.377,255.999,426.667,255.999z"/>
	</g>
</g>
<g>
</g>
<g>
</g>
<g>
</g>
<g>
</g>
<g>
</g>
<g>
</g>
<g>
</g>
<g>
</g>
<g>
</g>
<g>
</g>
<g>
</g>
<g>
</g>
<g>
</g>
<g>
</g>
<g>
</g>
</svg>
