<svg height="512" viewBox="0 0 64 64" width="512" xmlns="http://www.w3.org/2000/svg"><path d="M61 0H17a1 1 0 00-1 1v62a1 1 0 001 1h44a1 1 0 001-1V1a1 1 0 00-1-1z" fill="#ff7b66"/><path d="M21 59h25l11-10V7H21z" fill="#fffefe"/><path d="M27 0v10a1 1 0 001 1h22a1 1 0 001-1V0z" fill="#ffe585"/><path d="M30 5h2v2h-2zM46 5h2v2h-2z" fill="#fffefa"/><g fill="#ebebeb"><path d="M47 49h10L46 59v-9a1 1 0 011-1zM28 17h23v16H28zM34 38h11v2H34zM47 38h6v2h-6zM31 44h11v2H31zM44 44h9v2h-9zM26 50h17v2H26z"/></g><path d="M34 5h10v2H34z" fill="#fffefa"/><path d="M32 27l-1.352 7.661a24 24 0 01-9.235 15.029L17 53l-4.543-3.452a24.002 24.002 0 01-9.116-14.942L2 27l15-8z" fill="#bde660"/><path d="M14.877 46.363a19.947 19.947 0 01-7.596-12.451l-.837-4.749L17 23.533l10.556 5.63-.847 4.802a19.933 19.933 0 01-7.696 12.524l-1.998 1.499z" fill="#fdfefc"/><path d="M16.999 49.372a.998.998 0 01-.605-.204l-3.332-2.531a18.55 18.55 0 01-7.065-11.58l-.983-5.578a1 1 0 01.514-1.056l5.001-2.667.941 1.765-4.36 2.325.857 4.863a16.551 16.551 0 006.305 10.334l2.73 2.075 2.632-1.974a16.543 16.543 0 006.387-10.396l.866-4.903-4.362-2.327.941-1.765 5.002 2.668a1 1 0 01.514 1.056l-.992 5.618a18.534 18.534 0 01-7.157 11.647l-3.236 2.427a.975.975 0 01-.598.203z" fill="#d7f0a0"/><path d="M20.53 26.455l-3.531-1.883-3.528 1.882-.941-1.765 3.999-2.133a.999.999 0 01.941 0l4.002 2.134z" fill="#d7f0a0"/><path d="M16 40h-.038a1 1 0 01-.762-.399l-3-4 1.6-1.2 2.26 3.013 6.188-7.072 1.505 1.317-7 8A1.003 1.003 0 0116 40zM16 28h2v2h-2zM16 42h2v2h-2z" fill="#bde660"/></svg>