<svg xmlns="http://www.w3.org/2000/svg" xmlns:xlink="http://www.w3.org/1999/xlink" height="426.663" viewBox="0 0 192 159.999" width="512"><defs><linearGradient id="d"><stop offset="0" stop-color="#b7b7b7"/><stop offset="1" stop-color="#fffefe"/></linearGradient><linearGradient id="c"><stop offset="0" stop-color="#b7b7b7"/><stop offset="1" stop-color="#fff"/></linearGradient><linearGradient id="b"><stop offset="0" stop-color="#45bc57"/><stop offset="1" stop-color="#30723a"/></linearGradient><linearGradient id="a"><stop offset="0" stop-color="#ffff0b"/><stop offset="1" stop-color="#fbd700"/></linearGradient><linearGradient xlink:href="#a" id="g" gradientUnits="userSpaceOnUse" x1="-1.564" y1="152.947" x2="78.72" y2="107.088"/><linearGradient xlink:href="#b" id="e" x1="96.203" y1="15.051" x2="96.203" y2="175.322" gradientUnits="userSpaceOnUse"/><linearGradient xlink:href="#c" id="h" x1="152.064" y1="37.947" x2="151.525" y2="75.458" gradientUnits="userSpaceOnUse"/><linearGradient xlink:href="#d" id="f" x1="40.064" y1="77.947" x2="40.068" y2="115.322" gradientUnits="userSpaceOnUse"/></defs><path d="M104.064 49.162l50.69-18.103-5.38-15.068-112 40 5.38 15.068 45.31-16.182v104.648h-16v16h48v-16h-16z" fill="url(#e)" transform="translate(-.064 -15.527)"/><path d="M65.408 115.963L40.064 77.947 14.72 115.963l-13.312-8.875 32-48a8 8 0 0113.312 0l32 48z" fill="url(#f)" transform="translate(-.064 -15.527)"/><path d="M72.064 103.525h-64a8 8 0 00-8 8 40 40 0 0080 0 8 8 0 00-8-8z" fill="url(#g)" transform="translate(-.064 -15.527)"/><path d="M177.408 75.963l-25.344-38.016-25.344 38.016-13.312-8.875 32-48a8 8 0 0113.312 0l32 48z" fill="url(#h)" transform="translate(-.064 -15.527)"/><path d="M184 47.999h-64a8 8 0 00-8 8 40 40 0 0080 0 8 8 0 00-8-8z" fill="#fadd34"/><path d="M128 55.999a8 8 0 018-8h-16a8 8 0 00-8 8 40.014 40.014 0 0048 39.2 40.068 40.068 0 01-32-39.2z" fill="#f8fb67"/><g fill="#167e00"><path d="M23.42 65.276h31.928v7.191H23.42z"/><path d="M35.921 84.856V52.928h7.191v31.928z"/></g><path fill="#167e00" d="M135.753 29.5h31.928v7.191h-31.928z"/></svg>