<svg height="512pt" viewBox="0 -5 512 512" width="512pt" xmlns="http://www.w3.org/2000/svg" fill="#ddbb44"><path d="M441.965 214.309a34.56 34.56 0 00-7.13 3.566c-55.315 36.844-68.757 80.457-40.23 129.555h20.57a209.547 209.547 0 0051.02-135.864 58.664 58.664 0 00-24.23 2.743zm0 0M53.21 192.824a66.01 66.01 0 007.68 4.66c2.653 1.465 5.305 2.926 7.864 4.575a51.698 51.698 0 0119.2 30.535l1.097 3.383c1.922 5.761 3.566 11.613 5.21 17.464a111.046 111.046 0 0018.837 43.426 49.64 49.64 0 0012.98 9.875 151.82 151.82 0 018.14 5.211 24.708 24.708 0 0111.063 16.64 26.747 26.747 0 01-5.12 18.837h40.687c31.015.074 59.632 16.703 75.062 43.61a85.27 85.27 0 0146.535-38.673 83.088 83.088 0 0125.875-4.847c-.55-1.372-1.187-2.653-1.738-4.024a85.884 85.884 0 00-13.621-24.41 86.726 86.726 0 00-35.477-17.465 34.526 34.526 0 00-23.586-2.191 34.377 34.377 0 00-9.601 7.496 79.82 79.82 0 01-9.234 7.863 34.136 34.136 0 01-33.918 1.738l-6.13-2.652c-6.398-2.652-12.34-5.21-18.648-7.316-2.562-.82-5.12-1.555-7.68-2.286-4.664-1.37-9.234-2.742-13.714-4.386-19.567-7.223-31.453-18.742-35.383-34.196a35.33 35.33 0 012.191-25.05c7.5-14.72 24.32-15.91 36.48-16.73 2.196-.095 4.298-.278 6.22-.458 3.382-.367 6.855-.55 10.238-.64a60.292 60.292 0 0016.367-2.106 63.756 63.756 0 0019.016-12.434 152.805 152.805 0 0133.828-22.855c10.332-4.848 21.03-8.961 31.363-12.984l10.695-4.204c8.137-3.203 12.801-5.214 14.446-10.332a8.62 8.62 0 00-1.098-7.5 21.44 21.44 0 00-11.703-5.668 308.269 308.269 0 00-61.348-6.949 584.172 584.172 0 00-34.195-.273 38.525 38.525 0 01-28.617-9.418c-9.668-10.414-11.235-25.988-3.84-38.125a48.015 48.015 0 0125.969-19.473l1.093-.457c6.676-2.836 13.535-6.219 20.024-9.601 3.84-1.829 7.59-3.747 11.34-5.579a20.651 20.651 0 0011.062-9.507 9.472 9.472 0 00-1.828-9.598 23.297 23.297 0 00-9.145-5.031 212.866 212.866 0 00-24.503-6.399 224.12 224.12 0 01-23.313-6.035C102.859 48.535 56.16 111.918 47.27 185.325a14.021 14.021 0 005.94 7.5zm0 0"/><path d="M240.64 23.223a27.964 27.964 0 015.485 28.89 38.012 38.012 0 01-20.113 19.2L215.039 76.8c-6.855 3.472-13.988 7.039-21.21 10.054l-1.099.457c-8.867 3.75-13.988 6.13-17.277 11.887a13.715 13.715 0 00.82 15.817 20.6 20.6 0 0015.543 4.207c13.899-.184 24.778-.09 35.2.273a323.46 323.46 0 0165.007 7.406 38.042 38.042 0 0122.036 12.618 27.157 27.157 0 013.746 23.863 35.883 35.883 0 01-25.14 21.851l-10.79 4.207c-10.059 3.93-20.39 8.043-30.262 12.524a134.292 134.292 0 00-29.715 20.297 80.762 80.762 0 01-24.96 15.816 74.207 74.207 0 01-21.485 3.02c-3.02.09-6.035.183-8.96.547-2.196.183-4.481.367-6.95.55-10.606.73-18.926 1.645-21.484 6.766a17.699 17.699 0 00-.735 12.25c2.38 9.508 10.059 16.367 23.957 21.578 4.114 1.461 8.32 2.742 12.524 3.93 2.652.824 5.394 1.554 8.136 2.469 7.133 2.285 13.809 5.12 20.207 7.863l6.036 2.562c9.234 3.84 13.894 1.918 16.546.09a57.848 57.848 0 006.86-6.035 51.316 51.316 0 0114.902-10.973 51.201 51.201 0 0136.387 1.465 101.388 101.388 0 0142.973 22.035 93.33 93.33 0 0117.46 30.078c1.098 2.563 2.196 5.032 3.293 7.317a9.517 9.517 0 01.73 3.84h26.517c-26.516-54.035-8.868-104.961 50.836-144.735a50.555 50.555 0 0110.878-5.574 75.896 75.896 0 0129.989-3.933 210.504 210.504 0 00-71.223-141.165 194.69 194.69 0 00-31.727-22.859A209.9 209.9 0 00256 0a208.48 208.48 0 00-54.855 7.313 180.695 180.695 0 0123.128 6.218 40.215 40.215 0 0116.368 9.692zM401.657 99.73c4.149-2.87 9.844-1.835 12.715 2.313a187.405 187.405 0 0128.344 63.809 9.142 9.142 0 01-6.785 10.972 9.682 9.682 0 01-2.121.246 9.148 9.148 0 01-8.887-7.03 169.112 169.112 0 00-25.598-57.602 9.138 9.138 0 012.332-12.708zM354.293 56a9.169 9.169 0 015.914-3.754 9.163 9.163 0 016.832 1.531 192.716 192.716 0 0125.344 21.407 9.135 9.135 0 012.36 8.84 9.148 9.148 0 01-15.313 4.085 173.296 173.296 0 00-22.86-19.363A9.152 9.152 0 01354.293 56zm-89.148 1.781a37.263 37.263 0 017.039-9.965v-.09a26.315 26.315 0 0129.53-6.859 29.842 29.842 0 0111.153 10.606l7.5 10.605a38.198 38.198 0 018.594 19.11 24.56 24.56 0 01-12.8 23.59 23.281 23.281 0 01-11.157 2.835c-14.168 0-27.336-12.254-33.004-17.465a29.986 29.986 0 01-8.688-12.16 26.021 26.021 0 011.833-20.207zm0 0"/><path d="M284.434 76.707c14.445 13.441 20.664 13.258 23.132 11.98a6.56 6.56 0 003.2-5.945 25.34 25.34 0 00-5.211-10.055l-7.59-10.609a17.157 17.157 0 00-4.297-4.754c-1.918-.914-5.668.551-8.41 3.293a17.608 17.608 0 00-3.656 5.121 8.563 8.563 0 00-1.008 6.215 14.002 14.002 0 003.84 4.754zm0 0M171.613 417.828l-.183.184a22.733 22.733 0 000 32.547l.183.183a22.84 22.84 0 0015.817 6.403h137.14a22.84 22.84 0 0015.817-6.403l.183-.183a22.733 22.733 0 000-32.547l-.183-.184a22.853 22.853 0 00-15.817-6.398H187.43a22.853 22.853 0 00-15.817 6.398zm0 0M115.2 347.43c.64-.551 1.187-1.098 1.737-1.649a65.896 65.896 0 007.133-7.222 11.396 11.396 0 003.106-7.313 7.6 7.6 0 00-3.473-4.297c-2.379-1.644-4.754-3.11-7.133-4.57a62.75 62.75 0 01-17.37-13.715 124.323 124.323 0 01-22.583-50.379c-1.555-5.578-3.11-11.062-4.847-16.547l-1.188-3.476a35.173 35.173 0 00-11.977-20.938 78.179 78.179 0 00-6.582-3.84c-2.011-1.187-4.207-2.375-6.308-3.746v.547a209.521 209.521 0 0051.11 137.145zm0 0"/><path d="M443.43 365.715H331.152a68.205 68.205 0 00-22.672 3.84 69.065 69.065 0 00-25.785 16.273 59.295 59.295 0 00-6.125 7.317h48a40.43 40.43 0 0125.508 9.14H452.57c17.676 0 32 14.328 32 32s-14.324 32-32 32H350.078a40.433 40.433 0 01-25.508 9.145h-48a68.58 68.58 0 0054.582 27.425H443.43c37.847-.054 68.515-30.722 68.57-68.57 0-37.87-30.7-68.57-68.57-68.57zm0 0M161.922 466.285H68.57c-17.672 0-32-14.328-32-32s14.328-32 32-32h93.352a40.43 40.43 0 0125.508-9.14h48a68.573 68.573 0 00-54.582-27.43H68.57C30.723 365.77.055 396.437 0 434.285c0 37.871 30.7 68.57 68.57 68.57h112.278a67.914 67.914 0 0048.457-20.113 59.548 59.548 0 006.125-7.312h-48a40.433 40.433 0 01-25.508-9.145zm0 0"/></svg>