<svg height="512" viewBox="0 0 512 512" width="512" xmlns="http://www.w3.org/2000/svg"><path d="m456 248h-400a32 32 0 0 0 -32 32v128a32 32 0 0 0 32 32h256l24-24 24 24h96a32 32 0 0 0 32-32v-128a32 32 0 0 0 -32-32z" fill="#348fd9"/><path d="m51.313 348.686a38.631 38.631 0 0 0 -11.313 27.314 38.629 38.629 0 0 0 11.313 27.313l36.687 36.687h160l144-144v-32h32l16-16h-288z" fill="#3086cd"/><path d="m368 384h40v16h-40z" fill="#2a71ad"/><path d="m424 384h40v16h-40z" fill="#2a71ad"/><path d="m368 352h96v16h-96z" fill="#2a71ad"/><path d="m368 320h96v16h-96z" fill="#2a71ad"/><path d="m392 288h72v16h-72z" fill="#2a71ad"/><path d="m328 368h16v24h-16z" fill="#2a71ad"/><path d="m328 328h16v24h-16z" fill="#2a71ad"/><path d="m476.686 124.686-44.686-44.686-44.687-44.687a38.627 38.627 0 0 0 -54.626 0l-68.687 68.687v32h-32l-196.687 196.686a38.631 38.631 0 0 0 -11.313 27.314 38.629 38.629 0 0 0 11.313 27.313l44.687 44.687 44.686 44.686a38.626 38.626 0 0 0 54.627 0l196.687-196.686v-32h32l68.686-68.687a38.626 38.626 0 0 0 0-54.627z" fill="#4db7e5"/><path d="m272 240a57.943 57.943 0 0 0 -40.971 16.97l-71.029 71.03h-32l16 16 16 16 8 8 16 16v-32l71.029-71.03a57.936 57.936 0 0 0 16.971-40.97z" fill="#f35244"/><path d="m128 288 57.333 14.667 30.667-30.667h-72z" fill="#ffb531"/><path d="m240 296v72l-16 16-16-56z" fill="#ffb531"/><g fill="#2d7dbf"><path d="m298.745 88.001h90.51v15.998h-90.51z" transform="matrix(.707 -.707 .707 .707 32.873 271.362)"/><path d="m322.745 112.001h90.51v15.998h-90.51z" transform="matrix(.707 -.707 .707 .707 22.932 295.362)"/><path d="m346.745 136.001h90.51v15.998h-90.51z" transform="matrix(.707 -.707 .707 .707 12.991 319.362)"/><path d="m379.029 180.001h33.941v15.998h-33.941z" transform="matrix(.707 -.707 .707 .707 -16.95 335.078)"/><path d="m419.029 140.001h33.941v15.998h-33.941z" transform="matrix(.707 -.707 .707 .707 23.05 351.647)"/><path d="m47.716 332.001h56.569v15.998h-56.569z" transform="matrix(.707 -.707 .707 .707 -218.156 153.324)"/><path d="m75.029 364.001h33.941v15.998h-33.941z" transform="matrix(.707 -.707 .707 .707 -236.097 174.01)"/><path d="m99.029 388.001h33.941v15.998h-33.941z" transform="matrix(.707 -.707 .707 .707 -246.039 198.01)"/><path d="m123.029 412.001h33.941v15.998h-33.941z" transform="matrix(.707 -.707 .707 .707 -255.98 222.01)"/><path d="m147.029 436.001h33.941v15.998h-33.941z" transform="matrix(.707 -.707 .707 .707 -265.921 246.01)"/><path d="m324.686 264.001h22.627v15.998h-22.627z" transform="matrix(.707 -.707 .707 .707 -93.921 317.255)"/><path d="m292.686 296.001h22.627v15.998h-22.627z" transform="matrix(.707 -.707 .707 .707 -125.921 304)"/><path d="m180.402 188.001h79.196v15.998h-79.196z" transform="matrix(.707 -.707 .707 .707 -74.156 212.971)"/><path d="m280.001 148.686h15.998v22.627h-15.998z" transform="matrix(.707 -.707 .707 .707 -28.784 250.51)"/><path d="m312.001 180.686h15.998v22.627h-15.998z" transform="matrix(.707 -.707 .707 .707 -42.039 282.51)"/><path d="m344.001 212.686h15.998v22.627h-15.998z" transform="matrix(.707 -.707 .707 .707 -55.294 314.51)"/></g></svg>