<?xml version="1.0" encoding="UTF-8" standalone="no"?>
<svg
   xmlns:dc="http://purl.org/dc/elements/1.1/"
   xmlns:cc="http://creativecommons.org/ns#"
   xmlns:rdf="http://www.w3.org/1999/02/22-rdf-syntax-ns#"
   xmlns:svg="http://www.w3.org/2000/svg"
   xmlns="http://www.w3.org/2000/svg"
   xmlns:sodipodi="http://sodipodi.sourceforge.net/DTD/sodipodi-0.dtd"
   xmlns:inkscape="http://www.inkscape.org/namespaces/inkscape"
   height="464.00027"
   width="464.00009"
   version="1.1"
   id="svg18"
   sodipodi:docname="plane-tickets.svg"
   inkscape:version="0.92.4 (5da689c313, 2019-01-14)">
  <metadata
     id="metadata24">
    <rdf:RDF>
      <cc:Work
         rdf:about="">
        <dc:format>image/svg+xml</dc:format>
        <dc:type
           rdf:resource="http://purl.org/dc/dcmitype/StillImage" />
      </cc:Work>
    </rdf:RDF>
  </metadata>
  <defs
     id="defs22" />
  <sodipodi:namedview
     pagecolor="#ffffff"
     bordercolor="#666666"
     borderopacity="1"
     objecttolerance="10"
     gridtolerance="10"
     guidetolerance="10"
     inkscape:pageopacity="0"
     inkscape:pageshadow="2"
     inkscape:window-width="716"
     inkscape:window-height="489"
     id="namedview20"
     showgrid="false"
     inkscape:zoom="0.4609375"
     inkscape:cx="232"
     inkscape:cy="232.00009"
     inkscape:window-x="0"
     inkscape:window-y="0"
     inkscape:window-maximized="0"
     inkscape:current-layer="svg18" />
  <g
     id="g34"
     transform="translate(-24,-23.999827)">
    <path
       id="path2"
       d="M 456,248 H 56 a 32,32 0 0 0 -32,32 v 128 a 32,32 0 0 0 32,32 h 256 l 24,-24 24,24 h 96 a 32,32 0 0 0 32,-32 V 280 a 32,32 0 0 0 -32,-32 z"
       inkscape:connector-curvature="0"
       style="fill:#348fd9" />
    <path
       id="path4"
       d="M 51.313,348.686 A 38.631,38.631 0 0 0 40,376 38.629,38.629 0 0 0 51.313,403.313 L 88,440 H 248 L 392,296 v -32 h 32 l 16,-16 H 152 Z"
       inkscape:connector-curvature="0"
       style="fill:#3086cd" />
    <path
       id="path6"
       d="m 368,384 h 40 v 16 h -40 z m 56,0 h 40 v 16 h -40 z m -56,-32 h 96 v 16 h -96 z m 0,-32 h 96 v 16 h -96 z m 24,-32 h 72 v 16 h -72 z m -64,80 h 16 v 24 h -16 z m 0,-40 h 16 v 24 h -16 z"
       inkscape:connector-curvature="0"
       style="fill:#2a71ad" />
    <path
       id="path8"
       d="M 476.686,124.686 432,80 387.313,35.313 a 38.627,38.627 0 0 0 -54.626,0 L 264,104 v 32 H 232 L 35.313,332.686 A 38.631,38.631 0 0 0 24,360 38.629,38.629 0 0 0 35.313,387.313 L 80,432 l 44.686,44.686 a 38.626,38.626 0 0 0 54.627,0 L 376,280 v -32 h 32 l 68.686,-68.687 a 38.626,38.626 0 0 0 0,-54.627 z"
       inkscape:connector-curvature="0"
       style="fill:#4db7e5" />
    <path
       id="path10"
       d="m 272,240 a 57.943,57.943 0 0 0 -40.971,16.97 L 160,328 h -32 l 16,16 16,16 8,8 16,16 v -32 l 71.029,-71.03 A 57.936,57.936 0 0 0 272,240 Z"
       inkscape:connector-curvature="0"
       style="fill:#f35244" />
    <path
       id="path12"
       d="M 128,288 185.333,302.667 216,272 h -72 z m 112,8 v 72 l -16,16 -16,-56 z"
       inkscape:connector-curvature="0"
       style="fill:#ffb531" />
    <g
       id="g16"
       style="fill:#2d7dbf">
      <path
         id="path14"
         d="m 306.302,122.366 63.991,-63.99 11.31,11.31 -63.99,63.99 z m 23.995,24 63.991,-63.99 11.31,11.31 -63.99,63.99 z m 23.995,24 63.991,-63.99 11.31,11.31 -63.99,63.99 z m 23.992,23.999 23.996,-23.996 11.311,11.31 -23.996,23.997 z m 40,-39.991 23.996,-23.996 11.311,11.31 -23.996,23.997 z m -367.98,199.939 39.994,-39.994 11.31,11.31 -39.993,39.995 z m 23.993,24 23.996,-23.996 11.311,11.31 -23.996,23.997 z m 23.994,24 23.996,-23.996 11.311,11.31 -23.996,23.997 z m 23.995,24 23.996,-23.996 11.311,11.31 -23.996,23.997 z m 23.995,24 23.996,-23.996 11.311,11.31 -23.996,23.997 z M 322.28,274.35 l 15.998,-15.997 11.31,11.311 -15.997,15.997 z m -32,31.994 15.998,-15.998 11.31,11.311 -15.997,15.997 z m -103.975,-88.001 55.991,-55.991 11.311,11.31 -55.991,55.992 z m 87.993,-60.673 11.31,-11.31 15.998,15.997 -11.311,11.31 z m 31.992,32 11.311,-11.31 15.998,15.997 -11.311,11.31 z m 31.994,32 11.31,-11.31 15.998,15.997 -11.311,11.31 z"
         inkscape:connector-curvature="0" />
    </g>
  </g>
</svg>
