<svg height="512" width="512" xmlns="http://www.w3.org/2000/svg"><path d="M456 248H56a32 32 0 00-32 32v128a32 32 0 0032 32h256l24-24 24 24h96a32 32 0 0032-32V280a32 32 0 00-32-32z" fill="#348fd9"/><path d="M51.313 348.686A38.631 38.631 0 0040 376a38.629 38.629 0 0011.313 27.313L88 440h160l144-144v-32h32l16-16H152z" fill="#3086cd"/><path d="M368 384h40v16h-40zM424 384h40v16h-40zM368 352h96v16h-96zM368 320h96v16h-96zM392 288h72v16h-72zM328 368h16v24h-16zM328 328h16v24h-16z" fill="#2a71ad"/><path d="M476.686 124.686L432 80l-44.687-44.687a38.627 38.627 0 00-54.626 0L264 104v32h-32L35.313 332.686A38.631 38.631 0 0024 360a38.629 38.629 0 0011.313 27.313L80 432l44.686 44.686a38.626 38.626 0 0054.627 0L376 280v-32h32l68.686-68.687a38.626 38.626 0 000-54.627z" fill="#4db7e5"/><path d="M272 240a57.943 57.943 0 00-40.971 16.97L160 328h-32l16 16 16 16 8 8 16 16v-32l71.029-71.03A57.936 57.936 0 00272 240z" fill="#f35244"/><path d="M128 288l57.333 14.667L216 272h-72zM240 296v72l-16 16-16-56z" fill="#ffb531"/><g fill="#2d7dbf"><path d="M306.302 122.366l63.991-63.99 11.31 11.31-63.99 63.99zM330.297 146.366l63.991-63.99 11.31 11.31-63.99 63.99zM354.292 170.366l63.991-63.99 11.31 11.31-63.99 63.99zM378.284 194.365l23.996-23.996 11.311 11.31-23.996 23.997zM418.284 154.374l23.996-23.996 11.311 11.31-23.996 23.997zM50.304 354.313l39.994-39.994 11.31 11.31-39.993 39.995zM74.297 378.313l23.996-23.996 11.311 11.31-23.996 23.997zM98.291 402.313l23.996-23.996 11.311 11.31-23.996 23.997zM122.286 426.313l23.996-23.996 11.311 11.31-23.996 23.997zM146.281 450.313l23.996-23.996 11.311 11.31-23.996 23.997zM322.28 274.35l15.998-15.997 11.31 11.311-15.997 15.997zM290.28 306.344l15.998-15.998 11.31 11.311-15.997 15.997zM186.305 218.343l55.991-55.991 11.311 11.31-55.991 55.992zM274.298 157.67l11.31-11.31 15.998 15.997-11.311 11.31zM306.29 189.67l11.311-11.31 15.998 15.997-11.311 11.31zM338.284 221.67l11.31-11.31 15.998 15.997-11.311 11.31z"/></g></svg>