<svg height="464pt" viewBox="0 0 464 464" width="464pt" xmlns="http://www.w3.org/2000/svg"><path d="M336 400H32V48h224l80 80zm0 0" fill="#efeadd"/><path d="M384 0H96v48h160l80 80v48h48zm0 0" fill="#254b6f"/><path d="M280 336c0 8.836-7.164 16-16 16s-16-7.164-16-16v-19.84L80 275.863V464h368V275.863L280 316.16zm0 0" fill="#c49a6c"/><path d="M80 288.078V464h221.121C214.016 462.305 80 384.297 80 288.078zm0 0" fill="#b08b61"/><path d="M256 128h80l-80-80zm0 0" fill="#ee2820"/><path d="M448 176H80c-8.824.027-15.973 7.176-16 16v67.36a16.004 16.004 0 0012.238 15.6l3.762.903 168 40.297V304c0-8.836 7.164-16 16-16s16 7.164 16 16v12.16l168-40.297 3.762-.902A16.004 16.004 0 00464 259.359V192c-.027-8.824-7.176-15.973-16-16zm0 0" fill="#8b5e3c"/><path d="M0 432c0 17.672 14.328 32 32 32h32v-64H32c-17.672 0-32 14.328-32 32zm0 0" fill="#d1d3d4"/><path d="M96 464v-64H64v64zm0 0" fill="#808285"/><path d="M304 432l-16-16 24-16H96v32zm0 0" fill="#fa9028"/><path d="M304 432l-16 16 24 16 64-32-64-32-24 16zm0 0" fill="#808285"/><path d="M304 432H96v32h216l-24-16zm0 0" fill="#ff5023"/><path d="M264 288c-8.836 0-16 7.164-16 16v32c0 8.836 7.164 16 16 16s16-7.164 16-16v-32c0-8.836-7.164-16-16-16zm0 0" fill="#754c29"/><g fill="#f26158"><path d="M88 72h144v16H88zm0 0M88 104h144v16H88zm0 0M88 136h144v16H88zm0 0M56 72h16v16H56zm0 0M56 104h16v16H56zm0 0M56 136h16v16H56zm0 0"/></g><path d="M256 200h16v16h-16zm0 0M288 200h16v16h-16zm0 0M224 200h16v16h-16zm0 0" fill="#f1f2f2"/><path d="M354.617 421.313a23.138 23.138 0 000 21.375L376 432zm0 0" fill="#58595b"/></svg>