<svg height="464pt" viewBox="0 0 464.00007 464" width="464pt" xmlns="http://www.w3.org/2000/svg"><path d="m336 400h-304v-352h224l80 80zm0 0" fill="#efeadd"/><path d="m384 0h-288v48h160l80 80v48h48zm0 0" fill="#254b6f"/><path d="m280 336c0 8.835938-7.164062 16-16 16s-16-7.164062-16-16v-19.839844l-168-40.296875v188.136719h368v-188.136719l-168 40.296875zm0 0" fill="#c49a6c"/><path d="m80 288.078125v175.921875h221.121094c-87.105469-1.695312-221.121094-79.703125-221.121094-175.921875zm0 0" fill="#b08b61"/><path d="m256 128h80l-80-80zm0 0" fill="#ee2820"/><path d="m448 176h-368c-8.824219.027344-15.972656 7.175781-16 16v67.359375c-.023438 7.40625 5.042969 13.859375 12.238281 15.601563l3.761719.902343 168 40.296875v-12.160156c0-8.835938 7.164062-16 16-16s16 7.164062 16 16v12.160156l168-40.296875 3.761719-.902343c7.195312-1.742188 12.261719-8.195313 12.238281-15.601563v-67.359375c-.027344-8.824219-7.175781-15.972656-16-16zm0 0" fill="#8b5e3c"/><path d="m0 432c0 17.671875 14.328125 32 32 32h32v-64h-32c-17.671875 0-32 14.328125-32 32zm0 0" fill="#d1d3d4"/><path d="m96 464v-64h-32v64zm0 0" fill="#808285"/><path d="m304 432-16-16 24-16h-216v32zm0 0" fill="#fa9028"/><path d="m304 432-16 16 24 16 64-32-64-32-24 16zm0 0" fill="#808285"/><path d="m304 432h-208v32h216l-24-16zm0 0" fill="#ff5023"/><path d="m264 288c-8.835938 0-16 7.164062-16 16v32c0 8.835938 7.164062 16 16 16s16-7.164062 16-16v-32c0-8.835938-7.164062-16-16-16zm0 0" fill="#754c29"/><g fill="#f26158"><path d="m88 72h144v16h-144zm0 0"/><path d="m88 104h144v16h-144zm0 0"/><path d="m88 136h144v16h-144zm0 0"/><path d="m56 72h16v16h-16zm0 0"/><path d="m56 104h16v16h-16zm0 0"/><path d="m56 136h16v16h-16zm0 0"/></g><path d="m256 200h16v16h-16zm0 0" fill="#f1f2f2"/><path d="m288 200h16v16h-16zm0 0" fill="#f1f2f2"/><path d="m224 200h16v16h-16zm0 0" fill="#f1f2f2"/><path d="m354.617188 421.3125c-3.488282 6.699219-3.488282 14.675781 0 21.375l21.382812-10.6875zm0 0" fill="#58595b"/></svg>