<svg xmlns="http://www.w3.org/2000/svg" viewBox="0 0 64 64" width="512" height="512"><path fill="#a7d6dd" d="M3 3h34l10 10v46H3V3z"/><path d="M39 61V45a8 8 0 018-8h6a8 8 0 018 8v16z" fill="#e6e6e6"/><path fill="#6cbbc7" d="M47 13L37 3v10h10z"/><path fill="#02998a" d="M10 16.414l-2.707-2.707 1.414-1.414L10 13.586l3.293-3.293 1.414 1.414L10 16.414z"/><path fill="#6cbbc7" d="M18 10h15v2H18zM18 14h15v2H18zM18 34h18v2H18zM18 38h18v2H18zM18 46h17v2H18zM18 50h17v2H18z"/><path fill="#ff6536" d="M14.707 34.707l-1.414-1.414L11 35.586l-2.293-2.293-1.414 1.414L9.586 37l-2.293 2.293 1.414 1.414L11 38.414l2.293 2.293 1.414-1.414L12.414 37l2.293-2.293zM13.293 45.293L11 47.586l-2.293-2.293-1.414 1.414L9.586 49l-2.293 2.293 1.414 1.414L11 50.414l2.293 2.293 1.414-1.414L12.414 49l2.293-2.293-1.414-1.414z"/><path fill="#02998a" d="M10 28.414l-2.707-2.707 1.414-1.414L10 25.586l3.293-3.293 1.414 1.414L10 28.414z"/><path fill="#6cbbc7" d="M18 22h22v2H18zM18 26h22v2H18z"/><path fill="#fdb62f" d="M47 54l3 3 3-3-2-13 2-4h-6l2 4-2 13z"/><path d="M50 22h-6v6a6 6 0 006 6 6 6 0 006-6 6 6 0 00-6-6z" fill="#ffdaaa"/><path d="M50 22h-6v4h4a9.99 9.99 0 017.751 3.7A6 6 0 0050 22z" fill="#784a42"/></svg>