<?xml version="1.0" encoding="UTF-8" standalone="no"?>
<svg
   xmlns:dc="http://purl.org/dc/elements/1.1/"
   xmlns:cc="http://creativecommons.org/ns#"
   xmlns:rdf="http://www.w3.org/1999/02/22-rdf-syntax-ns#"
   xmlns:svg="http://www.w3.org/2000/svg"
   xmlns="http://www.w3.org/2000/svg"
   xmlns:sodipodi="http://sodipodi.sourceforge.net/DTD/sodipodi-0.dtd"
   xmlns:inkscape="http://www.inkscape.org/namespaces/inkscape"
   height="472"
   width="472"
   version="1.1"
   id="svg48"
   sodipodi:docname="retirement.svg"
   inkscape:version="0.92.4 (5da689c313, 2019-01-14)">
  <metadata
     id="metadata54">
    <rdf:RDF>
      <cc:Work
         rdf:about="">
        <dc:format>image/svg+xml</dc:format>
        <dc:type
           rdf:resource="http://purl.org/dc/dcmitype/StillImage" />
      </cc:Work>
    </rdf:RDF>
  </metadata>
  <defs
     id="defs52" />
  <sodipodi:namedview
     pagecolor="#ffffff"
     bordercolor="#666666"
     borderopacity="1"
     objecttolerance="10"
     gridtolerance="10"
     guidetolerance="10"
     inkscape:pageopacity="0"
     inkscape:pageshadow="2"
     inkscape:window-width="716"
     inkscape:window-height="489"
     id="namedview50"
     showgrid="false"
     inkscape:zoom="0.4609375"
     inkscape:cx="240"
     inkscape:cy="240"
     inkscape:window-x="0"
     inkscape:window-y="0"
     inkscape:window-maximized="0"
     inkscape:current-layer="svg48" />
  <g
     id="g79"
     transform="translate(-16,-24)">
    <path
       id="path2"
       d="M 265.626,24 H 124 a 20,20 0 0 0 -20,20 20,20 0 0 0 20,20 h 4 L 72,168 h 40 v 104 h 80 v 32 h 76.564 L 296,264 V 216 L 313.256,77.954 A 48,48 0 0 0 265.626,24 Z"
       inkscape:connector-curvature="0"
       style="fill:#ffdad2" />
    <path
       id="path4"
       d="M 280,304 240,496 H 16 A 170.088,170.088 0 0 1 90.896,371.403 L 192,304 Z"
       inkscape:connector-curvature="0"
       style="fill:#3086cd" />
    <path
       id="path6"
       d="m 144,336 -8.103,11.576 A 518.758,518.758 0 0 0 64,496 h 176 l 40,-192 h -88 z"
       inkscape:connector-curvature="0"
       style="fill:#4db7e5" />
    <path
       id="path8"
       d="M 192,64 H 124 A 20,20 0 0 1 104,44 20,20 0 0 1 124,24 h 141.626 a 48,48 0 0 1 47.63,53.954 L 296,216 l -40,-48 16,-32 -40,-16 -40,48 z"
       inkscape:connector-curvature="0"
       style="fill:#adcee8" />
    <path
       id="path10"
       d="m 192,304 h 83.646 L 240,360 Z"
       inkscape:connector-curvature="0"
       style="fill:#47a2d4" />
    <path
       id="path12"
       d="M 296,264 A 573.672,573.672 0 0 0 196.515,476.81 L 192,496 H 488 V 368 A 234.958,234.958 0 0 0 362.919,282.589 Z"
       inkscape:connector-curvature="0"
       style="fill:#2a70ab" />
    <path
       id="path14"
       d="m 192,304 -48,32 8,32 24,8 41.846,-41.846 z"
       inkscape:connector-curvature="0"
       style="fill:#3086cd" />
    <path
       id="path16"
       d="m 168,496 8,-120 -24,-8 -25.6,128 z"
       inkscape:connector-curvature="0"
       style="fill:#2a70ab" />
    <path
       id="path18"
       d="M 312,440 V 268.444 L 296,264 A 573.667,573.667 0 0 0 196.515,476.81 L 192,496 h 72 l -16,-24 z"
       inkscape:connector-curvature="0"
       style="fill:#3086cd" />
    <path
       id="path20"
       d="M 155.93,213.018 A 15.33,15.33 0 0 0 165.356,190.26 45.849,45.849 0 0 0 126.041,168 H 112 v 32 h 24 l 2.501,5.001 a 15.328,15.328 0 0 0 17.428,8.017 z M 112,224 l 16,16 h 96 l -32,32 h -80 z"
       inkscape:connector-curvature="0"
       style="fill:#adcee8" />
    <rect
       id="rect22"
       y="112"
       x="128"
       width="32"
       rx="8"
       height="16"
       style="fill:#6b402a" />
    <path
       id="path24"
       d="m 192,294.627 59.313,-59.313 A 8,8 0 0 0 240,224 l -48,48 z"
       inkscape:connector-curvature="0"
       style="fill:#ff9f9b" />
    <path
       id="path26"
       d="M 344.26,200.782 360,248 h 64 l 15.74,-47.218 a 8.16,8.16 0 0 0 -12.638,-9.109 v 0.001 a 16,16 0 0 1 -20.914,-1.486 l -8.418,-8.418 a 8.16,8.16 0 0 0 -11.54,0 l -8.418,8.418 a 16,16 0 0 1 -20.913,1.486 h -10e-4 a 8.16,8.16 0 0 0 -12.637,9.108 z"
       inkscape:connector-curvature="0"
       style="fill:#f35244" />
    <path
       id="path28"
       d="m 400,248 h -16 v -24 a 8,8 0 0 1 8,-8 8,8 0 0 1 8,8 z"
       inkscape:connector-curvature="0"
       style="fill:#cf3b2e" />
    <path
       id="path30"
       d="m 360,280 h 64 a 64,64 0 0 1 64,64 v 104 a 40,40 0 0 1 -40,40 H 336 A 40,40 0 0 1 296,448 V 344 a 64,64 0 0 1 64,-64 z"
       inkscape:connector-curvature="0"
       style="fill:#ea4a3b" />
    <path
       id="path32"
       d="m 360,248 h 64 v 32 h -64 z"
       inkscape:connector-curvature="0"
       style="fill:#db4132" />
    <path
       id="path34"
       d="m 280,360 h 144 v 80 H 280 Z"
       inkscape:connector-curvature="0"
       style="fill:#95cb37" />
    <g
       id="g38"
       style="fill:#69a709">
      <path
         id="path36"
         d="m 280,400 a 40,40 0 0 0 40,-40 h -40 z m 40,40 a 40,40 0 0 0 -40,-40 v 40 z m 104,-40 a 40,40 0 0 1 -40,-40 h 40 z m -40,40 a 40,40 0 0 1 40,-40 v 40 z"
         inkscape:connector-curvature="0" />
    </g>
    <path
       id="path40"
       d="m 280,440 h 144 v 48 H 280 Z"
       inkscape:connector-curvature="0"
       style="fill:#448703" />
    <path
       id="path42"
       d="M 405.21,440 A 47.976,47.976 0 0 1 360,472 h -80 v 16 h 144 v -48 z"
       inkscape:connector-curvature="0"
       style="fill:#276b02" />
    <path
       id="path44"
       d="m 336,360 h 32 v 128 h -32 z"
       inkscape:connector-curvature="0"
       style="fill:#fca713" />
    <path
       id="path46"
       d="m 336,440 h 32 v 48 h -32 z"
       inkscape:connector-curvature="0"
       style="fill:#f98500" />
  </g>
</svg>
