<?xml version="1.0"?>
<svg xmlns="http://www.w3.org/2000/svg" viewBox="0 0 512 512" width="512" height="512"><g id="Out_line" data-name="Out line"><path d="M152,112H136a8,8,0,0,0,0,16h16a8,8,0,0,0,0-16Z"/><path d="M304,264V216.49609L321.19434,78.9458A56.00037,56.00037,0,0,0,265.62646,16H124a27.99756,27.99756,0,0,0-8.65363,54.625L64.95605,164.207A8.00035,8.00035,0,0,0,72,176h32v96a7.99977,7.99977,0,0,0,8,8h72v19.71875L86.4585,364.74658A177.47171,177.47171,0,0,0,8.03955,495.2041l15.9209,1.5918A161.52715,161.52715,0,0,1,95.3335,378.05908l19.32733-12.88489a525.69687,525.69687,0,0,0-58.32343,128.527l15.3252,4.59766a509.82977,509.82977,0,0,1,68.84192-143.29541L143.75366,368,112.23877,494.05957l15.52246,3.88086L157.666,378.32129l9.94043,3.31348-7.58887,113.833,15.96484,1.06446L183.78253,379.531,217.394,345.91943l11.64612,13.58716A580.623,580.623,0,0,0,188.728,474.978l-4.51563,19.18945,15.5752,3.665,4.51513-19.18994A562.31707,562.31707,0,0,1,302.3999,268.7998,7.99948,7.99948,0,0,0,304,264ZM124,32H265.62646a40.00008,40.00008,0,0,1,39.69141,44.96143l-14.97,119.75946L265.49512,166.898l13.66015-27.32031a7.999,7.999,0,0,0-4.18408-11.00537l-40-16a8.00092,8.00092,0,0,0-9.11719,2.30615L200,145.90332V64a7.99977,7.99977,0,0,0-8-8H124a12,12,0,0,1,0-24Zm-4,144h6.041a38.03979,38.03979,0,0,1,32.45507,18.37549,7.3291,7.3291,0,1,1-12.83984,7.04883l-2.501-5.002A7.99924,7.99924,0,0,0,136,192H120Zm0,88V243.31348l2.34326,2.34326A7.99877,7.99877,0,0,0,128,248h76.68652l-16,16Zm53.83936,102.84717-15.14356-5.04785-5.56726-22.27027L190.539,314.58862l16.41181,19.1471Zm62.89111-22.95471L209.3941,312h44.8852Q244.98009,327.685,236.73047,343.89246ZM288,261.34326q-12.6753,17.05958-24,34.84229V296H200V275.31348l45.65674-45.65674-11.31348-11.31348L220.68652,232H131.314L120,220.68646V208h11.05566l.29.57959a23.16629,23.16629,0,0,0,20.77344,12.91162,23.69179,23.69179,0,0,0,5.75049-.7124,23.32914,23.32914,0,0,0,14.34619-34.63526A54.12031,54.12031,0,0,0,126.041,160H85.39355l47.38477-88H184v96a8.00024,8.00024,0,0,0,14.146,5.12158l36.27929-43.53515,26.53125,10.6123-12.11181,24.22363a8.00026,8.00026,0,0,0,1.00927,8.69922L288,218.89648Z"/><path d="M432,272.45508V249.29785l15.32861-45.98633a16.15964,16.15964,0,0,0-25.02685-18.03759,8.04223,8.04223,0,0,1-10.45752-.74317l-8.41748-8.41748a16.1781,16.1781,0,0,0-22.85352,0l-8.41748,8.41748a8.04185,8.04185,0,0,1-10.458.74268,16.15971,16.15971,0,0,0-25.02636,18.03808L352,249.29785v23.16382a72.06507,72.06507,0,0,0-63.44336,62.54858l15.87695,1.9795A56.04289,56.04289,0,0,1,360,288h64a56.06353,56.06353,0,0,1,56,56V448a32.036,32.036,0,0,1-32,32h0v16h0a48.05436,48.05436,0,0,0,48-48V344A72.09543,72.09543,0,0,0,432,272.45508ZM368,256h48v16H368Zm-16.18115-57.84766c.05176-.06445.15429-.1416.14941-.15966a.62584.62584,0,0,1,.13037.08105,24.11811,24.11811,0,0,0,31.37061-2.22949l8.41748-8.41748a.16032.16032,0,0,1,.22656,0l8.41748,8.41748a24.11812,24.11812,0,0,0,31.3711,2.229c.04052-.03027.07177-.0498.08447-.061.07275.02636.16992.09179.19482.09179.00391,0,.04395-.0791-.03125.14795L418.23389,240H400V216H384v24H365.76611L351.8501,198.252C351.83447,198.2041,351.8252,198.16846,351.81885,198.15234Z"/><path d="M424,352H280a7.99977,7.99977,0,0,0-8,8V488a7.99977,7.99977,0,0,0,8,8H424a7.99977,7.99977,0,0,0,8-8V360A7.99977,7.99977,0,0,0,424,352Zm-26.49316,48a48.08047,48.08047,0,0,0-20.8274,32H376V368h.67944A48.08047,48.08047,0,0,0,397.50684,400ZM416,409.01257V432H393.01257A32.1195,32.1195,0,0,1,416,409.01257Zm0-18.02514A32.1195,32.1195,0,0,1,393.01257,368H416ZM360,368v64H344V368Zm-72,41.01257A32.1195,32.1195,0,0,1,310.98743,432H288ZM327.32056,432a48.08047,48.08047,0,0,0-20.8274-32,48.08047,48.08047,0,0,0,20.8274-32H328v64Zm-16.33313-64A32.1195,32.1195,0,0,1,288,390.98743V368ZM288,448h40v32H288Zm56,32V448h16v32Zm32,0V448h40v32Z"/></g></svg>
