<svg height="512" viewBox="0 0 512 512" width="512" xmlns="http://www.w3.org/2000/svg"><g id="Flat"><path d="m265.62646 24h-141.62658a19.99994 19.99994 0 0 0 -19.99994 19.99994v.00006a20 20 0 0 0 19.99994 20h4.00006l-56 104h40l.00006 104h80l-.00006 32h76.564l27.43606-40v-48l17.25574-138.04633a48 48 0 0 0 -47.62928-53.95367z" fill="#ffdad2"/><path d="m280 304-40 192h-224v-.00008a170.08777 170.08777 0 0 1 74.896-124.59722l101.104-67.4027z" fill="#3086cd"/><path d="m144 336-8.10307 11.57581a518.758 518.758 0 0 0 -71.89693 148.42411v.00008h176l40-192h-88z" fill="#4db7e5"/><path d="m191.99992 64h-68a20 20 0 0 1 -20-20 20 20 0 0 1 20-20h141.62646a48 48 0 0 1 47.62934 53.95367l-17.2558 138.04633-40-48 16-32-40-16-40 48z" fill="#adcee8"/><path d="m192 304h83.646l-35.646 56z" fill="#47a2d4"/><path d="m296 264-.00008.0001a573.67239 573.67239 0 0 0 -99.48461 212.80984l-4.51531 19.19006h296v-128-.00006a234.95789 234.95789 0 0 0 -125.0813-85.41143z" fill="#2a70ab"/><path d="m192 304-48 32 8 32 24 8 41.846-41.846z" fill="#3086cd"/><path d="m168 496 8-120-24-8-25.6 128z" fill="#2a70ab"/><path d="m312 440v-171.55566l-16-4.44434a573.66742 573.66742 0 0 0 -99.48486 212.81006l-4.51514 19.18994h72l-16-24z" fill="#3086cd"/><path d="m155.9292 213.01758a15.32907 15.32907 0 0 0 9.42676-22.75781 45.84856 45.84856 0 0 0 -39.31496-22.25977h-14.041v32h24l2.501 5.00146a15.32831 15.32831 0 0 0 17.4282 8.01612z" fill="#adcee8"/><path d="m112 224 16 16h96l-32 32h-80z" fill="#adcee8"/><rect fill="#6b402a" height="16" rx="8" width="32" x="128" y="112"/><path d="m191.99994 294.627 59.31354-59.31347a7.99984 7.99984 0 0 0 -11.31348-11.31353l-48 48z" fill="#ff9f9b"/><path d="m344.2606 200.78181 15.7394 47.21819h64l15.7394-47.21819a8.16 8.16 0 0 0 -12.63726-9.10841l-.00076.00056a16 16 0 0 1 -20.91371-1.48629l-8.41767-8.41767a8.16 8.16 0 0 0 -11.54 0l-8.41768 8.41768a16 16 0 0 1 -20.91371 1.48629l-.00076-.00056a8.16 8.16 0 0 0 -12.63725 9.1084z" fill="#f35244"/><path d="m400 248h-16v-24a8 8 0 0 1 8-8 8 8 0 0 1 8 8z" fill="#cf3b2e"/><path d="m360 280h64a64 64 0 0 1 64 64v104a40 40 0 0 1 -40 40h-112a40 40 0 0 1 -40-40v-104a64 64 0 0 1 64-64z" fill="#ea4a3b"/><path d="m360 248h64v32h-64z" fill="#db4132"/><path d="m280 360h144v80h-144z" fill="#95cb37"/><g fill="#69a709"><path d="m280 400a40 40 0 0 0 40-40h-40z"/><path d="m320 440a40 40 0 0 0 -40-40v40z"/><path d="m424 400a40 40 0 0 1 -40-40h40z"/><path d="m384 440a40 40 0 0 1 40-40v40z"/></g><path d="m280 440h144v48h-144z" fill="#448703"/><path d="m405.21 440a47.97556 47.97556 0 0 1 -45.21 32h-80v16h144v-48z" fill="#276b02"/><path d="m336 360h32v128h-32z" fill="#fca713"/><path d="m336 440h32v48h-32z" fill="#f98500"/></g></svg>