<svg id="Capa_1" enable-background="new 0 0 512 512" height="512" viewBox="0 0 512 512" width="512" xmlns="http://www.w3.org/2000/svg"><g><g><g><path d="m358.748 441.119h-311.86c-12.294 0-22.26-9.966-22.26-22.26v-396.599c-.001-12.294 9.966-22.26 22.26-22.26h311.86c12.294 0 22.26 9.966 22.26 22.26v396.598c.001 12.294-9.966 22.261-22.26 22.261z" fill="#f6f1f1"/></g><g><path d="m358.78 0h-29.251v367.411c0 12.277-9.952 22.229-22.229 22.229h-282.673v29.251c0 12.276 9.952 22.229 22.229 22.229h311.924c12.276 0 22.229-9.952 22.229-22.229v-396.662c0-12.277-9.953-22.229-22.229-22.229z" fill="#efe7e4"/></g><g><g><path d="m103.293 139.048c-4.136 0-7.489-3.353-7.489-7.489v-74.472h-10.03c-4.136 0-7.489-3.353-7.489-7.489s3.353-7.489 7.489-7.489h17.519c4.136 0 7.489 3.353 7.489 7.489v81.961c0 4.136-3.353 7.489-7.489 7.489z" fill="#595454"/></g></g><g><g><path d="m98.677 264.293c-15.856 0-17.016-.388-18.005-.718-2.504-.834-4.375-2.725-5.133-5.188-1.312-4.264.571-6.73 5.603-13.319 4.17-5.46 11.932-15.623 24.936-34.203 3.897-5.569 6.409-10.562 7.472-14.849l.287-2.246c-.225-7.239-6.184-13.058-13.476-13.058-6.43 0-11.994 4.568-13.23 10.861-.797 4.058-4.733 6.703-8.792 5.906s-6.703-4.733-5.906-8.792c2.612-13.3 14.357-22.953 27.928-22.953 15.693 0 28.461 12.768 28.461 28.461 0 .317-.02.634-.06.949l-.405 3.171c-.032.249-.076.497-.133.742-1.446 6.239-4.768 13.101-9.874 20.397-10.024 14.322-16.984 23.723-21.607 29.844 7.853.02 18.237-.065 27.97-.187 4.12-.038 7.531 3.259 7.583 7.395s-3.259 7.531-7.395 7.583c-11.568.144-20.022.204-26.224.204z" fill="#595454"/></g></g><g><g><path d="m102.295 350.883c-4.136 0-7.489-3.353-7.489-7.489s3.353-7.489 7.489-7.489c7.434 0 13.483-6.048 13.483-13.483s-6.048-13.483-13.483-13.483c-6.43 0-11.994 4.568-13.23 10.861-.797 4.059-4.735 6.699-8.792 5.906-4.059-.797-6.703-4.733-5.906-8.792 2.612-13.3 14.357-22.953 27.928-22.953 15.693 0 28.461 12.768 28.461 28.462 0 15.692-12.768 28.46-28.461 28.46z" fill="#595454"/></g><g><path d="m102.295 392.827c-14.12 0-26.238-10.533-28.188-24.501-.182-1.302-.274-2.635-.274-3.96 0-4.136 3.353-7.489 7.489-7.489s7.489 3.353 7.489 7.489c0 .634.044 1.27.13 1.888.923 6.61 6.663 11.594 13.353 11.594 7.434 0 13.483-6.048 13.483-13.483s-6.048-13.483-13.483-13.483c-4.136 0-7.489-3.353-7.489-7.489s3.353-7.489 7.489-7.489c15.693 0 28.461 12.768 28.461 28.462.001 15.693-12.767 28.461-28.46 28.461z" fill="#595454"/></g></g><g><path d="m271.03 73.221h-105.09c-4.136 0-7.489-3.353-7.489-7.489s3.353-7.489 7.489-7.489h105.09c4.136 0 7.489 3.353 7.489 7.489s-3.353 7.489-7.489 7.489z" fill="#eadfda"/></g><g><path d="m245.602 109.968h-79.662c-4.136 0-7.489-3.353-7.489-7.489s3.353-7.489 7.489-7.489h79.662c4.136 0 7.489 3.353 7.489 7.489s-3.353 7.489-7.489 7.489z" fill="#eadfda"/></g><g><path d="m300.553 205.04h-134.613c-4.136 0-7.489-3.353-7.489-7.489s3.353-7.489 7.489-7.489h134.613c4.136 0 7.489 3.353 7.489 7.489s-3.353 7.489-7.489 7.489z" fill="#eadfda"/></g><g><path d="m271.03 241.788h-105.09c-4.136 0-7.489-3.353-7.489-7.489s3.353-7.489 7.489-7.489h105.09c4.136 0 7.489 3.353 7.489 7.489s-3.353 7.489-7.489 7.489z" fill="#eadfda"/></g><g><path d="m271.03 339.477h-105.09c-4.136 0-7.489-3.353-7.489-7.489s3.353-7.489 7.489-7.489h105.09c4.136 0 7.489 3.353 7.489 7.489s-3.353 7.489-7.489 7.489z" fill="#eadfda"/></g><g><path d="m271.03 376.224h-105.09c-4.136 0-7.489-3.353-7.489-7.489s3.353-7.489 7.489-7.489h105.09c4.136 0 7.489 3.353 7.489 7.489s-3.353 7.489-7.489 7.489z" fill="#eadfda"/></g></g><g><g><path d="m390.834 512c-4.136 0-7.489-3.353-7.489-7.489v-45.56c0-4.136 3.353-7.489 7.489-7.489s7.489 3.353 7.489 7.489v45.56c0 4.136-3.353 7.489-7.489 7.489z" fill="#595454"/></g><g><path d="m479.884 281.829c-15.073 0-27.336-12.263-27.336-27.336v-69.1c0-7.543-6.137-13.68-13.68-13.68h-29.758c-4.136 0-7.489-3.353-7.489-7.489s3.353-7.489 7.489-7.489h29.758c15.803 0 28.659 12.856 28.659 28.658v69.1c0 6.814 5.543 12.357 12.357 12.357 4.136 0 7.489 3.353 7.489 7.489s-3.353 7.49-7.489 7.49z" fill="#595454"/></g><g><path d="m412.649 132.057h-43.63c-6.618 0-11.983 5.365-11.983 11.983v195.546c0 36.186 5.607 72.153 16.621 106.622l6.393 20.006c3.355 10.501 18.214 10.501 21.569 0l6.393-20.006c11.014-34.469 16.621-70.436 16.621-106.622v-195.546c-.001-6.618-5.366-11.983-11.984-11.983z" fill="#fcb143"/></g><g><path d="m412.649 132.057h-13.655v193.518c0 36.186-5.607 72.153-16.621 106.622l-6.393 20.006c-.066.206-.143.4-.218.597l4.286 13.415c3.355 10.501 18.214 10.501 21.569 0l6.393-20.006c11.014-34.469 16.621-70.436 16.621-106.622v-195.547c.001-6.618-5.364-11.983-11.982-11.983z" fill="#fa9801"/></g></g></g></svg>