<svg height="512" width="512" xmlns="http://www.w3.org/2000/svg"><path d="M358.748 441.119H46.888c-12.294 0-22.26-9.966-22.26-22.26V22.26C24.627 9.966 34.594 0 46.888 0h311.86c12.294 0 22.26 9.966 22.26 22.26v396.598c.001 12.294-9.966 22.261-22.26 22.261z" fill="#f6f1f1"/><path d="M358.78 0h-29.251v367.411c0 12.277-9.952 22.229-22.229 22.229H24.627v29.251c0 12.276 9.952 22.229 22.229 22.229H358.78c12.276 0 22.229-9.952 22.229-22.229V22.229C381.009 9.952 371.056 0 358.78 0z" fill="#efe7e4"/><path d="M103.293 139.048a7.49 7.49 0 01-7.489-7.489V57.087h-10.03a7.49 7.49 0 010-14.978h17.519a7.49 7.49 0 017.489 7.489v81.961a7.49 7.49 0 01-7.489 7.489zM98.677 264.293c-15.856 0-17.016-.388-18.005-.718-2.504-.834-4.375-2.725-5.133-5.188-1.312-4.264.571-6.73 5.603-13.319 4.17-5.46 11.932-15.623 24.936-34.203 3.897-5.569 6.409-10.562 7.472-14.849l.287-2.246c-.225-7.239-6.184-13.058-13.476-13.058-6.43 0-11.994 4.568-13.23 10.861a7.49 7.49 0 01-14.698-2.886c2.612-13.3 14.357-22.953 27.928-22.953 15.693 0 28.461 12.768 28.461 28.461 0 .317-.02.634-.06.949l-.405 3.171a7.488 7.488 0 01-.133.742c-1.446 6.239-4.768 13.101-9.874 20.397-10.024 14.322-16.984 23.723-21.607 29.844 7.853.02 18.237-.065 27.97-.187 4.12-.038 7.531 3.259 7.583 7.395s-3.259 7.531-7.395 7.583c-11.568.144-20.022.204-26.224.204zM102.295 350.883a7.49 7.49 0 010-14.978c7.434 0 13.483-6.048 13.483-13.483s-6.048-13.483-13.483-13.483c-6.43 0-11.994 4.568-13.23 10.861a7.489 7.489 0 11-14.698-2.886c2.612-13.3 14.357-22.953 27.928-22.953 15.693 0 28.461 12.768 28.461 28.462 0 15.692-12.768 28.46-28.461 28.46z" fill="#595454"/><path d="M102.295 392.827c-14.12 0-26.238-10.533-28.188-24.501a28.71 28.71 0 01-.274-3.96 7.49 7.49 0 0114.978 0c0 .634.044 1.27.13 1.888.923 6.61 6.663 11.594 13.353 11.594 7.434 0 13.483-6.048 13.483-13.483s-6.048-13.483-13.483-13.483a7.49 7.49 0 010-14.978c15.693 0 28.461 12.768 28.461 28.462.001 15.693-12.767 28.461-28.46 28.461z" fill="#595454"/><path d="M271.03 73.221H165.94a7.49 7.49 0 010-14.978h105.09a7.49 7.49 0 010 14.978zM245.602 109.968H165.94a7.49 7.49 0 010-14.978h79.662a7.49 7.49 0 010 14.978zM300.553 205.04H165.94a7.49 7.49 0 010-14.978h134.613a7.49 7.49 0 010 14.978zM271.03 241.788H165.94a7.49 7.49 0 010-14.978h105.09a7.49 7.49 0 010 14.978zM271.03 339.477H165.94a7.49 7.49 0 010-14.978h105.09a7.49 7.49 0 010 14.978z" fill="#eadfda"/><g><path d="M271.03 376.224H165.94a7.49 7.49 0 010-14.978h105.09a7.49 7.49 0 010 14.978z" fill="#eadfda"/></g><g><path d="M390.834 512a7.49 7.49 0 01-7.489-7.489v-45.56a7.49 7.49 0 0114.978 0v45.56a7.49 7.49 0 01-7.489 7.489zM479.884 281.829c-15.073 0-27.336-12.263-27.336-27.336v-69.1c0-7.543-6.137-13.68-13.68-13.68H409.11a7.49 7.49 0 010-14.978h29.758c15.803 0 28.659 12.856 28.659 28.658v69.1c0 6.814 5.543 12.357 12.357 12.357a7.49 7.49 0 010 14.979z" fill="#595454"/><path d="M412.649 132.057h-43.63c-6.618 0-11.983 5.365-11.983 11.983v195.546a350.3 350.3 0 0016.621 106.622l6.393 20.006c3.355 10.501 18.214 10.501 21.569 0l6.393-20.006a350.3 350.3 0 0016.621-106.622V144.04c-.001-6.618-5.366-11.983-11.984-11.983z" fill="#fcb143"/><path d="M412.649 132.057h-13.655v193.518a350.3 350.3 0 01-16.621 106.622l-6.393 20.006c-.066.206-.143.4-.218.597l4.286 13.415c3.355 10.501 18.214 10.501 21.569 0l6.393-20.006a350.3 350.3 0 0016.621-106.622V144.04c.001-6.618-5.364-11.983-11.982-11.983z" fill="#fa9801"/></g></svg>