<svg xmlns="http://www.w3.org/2000/svg" width="512" height="512"><path d="M422 166v301c0 24.813 20.187 45 45 45s45-20.187 45-45V166h-90z" fill="#012631"/><path d="M422 0v166c0 24.813 20.187 45 45 45s45-20.187 45-45V0h-90z" fill="#00cffa"/><path fill="#014859" d="M301 0l-15 20-15-20h-75.5l-120 256 120 256H391V0z"/><path fill="#016a82" d="M120 0l-15 20L90 0H0v512h195.5V0z"/><path fill="#ffeebc" d="M346 45H195.5l-66.642 211L195.5 467H346z"/><path fill="#fff" d="M45 45h150.5v422H45z"/><path fill="#9da9ad" d="M301 0h-30v75h-75.5l-20 15 20 15H301z"/><path fill="#b7c5c8" d="M120 75V0H90v105h105.5V75z"/><path fill="#012631" d="M270.5 171.909h-75l-12.053 15 12.053 15h75z"/><path fill="#014859" d="M120.5 171.909h75v30h-75z"/><path d="M195.75 231.909l-45 84.091 45 84.091 5.629-2.278c42.141-17.061 69.371-57.459 69.371-102.919v-62.985h-75z" fill="#ffab37"/><path d="M120.75 231.909v62.985c0 45.46 27.23 85.858 69.371 102.919l5.629 2.278V231.909h-75z" fill="#ffcd37"/></svg>