<svg height="512" viewBox="0 0 58 58" width="512" xmlns="http://www.w3.org/2000/svg"><g fill-rule="nonzero" fill="none"><path d="M12 7.73V17H8V7.73c.288.22.638.34 1 .344h2a1.678 1.678 0 001-.344zM27 7.73V17h-4V7.73c.288.22.638.34 1 .344h2a1.678 1.678 0 001-.344z" fill="#bdc3c7"/><path d="M9 50v6a2.006 2.006 0 01-2 2H5a2.006 2.006 0 01-2-2v-6z" fill="#3f5c6c"/><path d="M28 2v5a2 2 0 01-2 2h-2a2 2 0 01-2-2V5h-9v2a2 2 0 01-2 2H9a2 2 0 01-2-2V2a2.006 2.006 0 012-2h17a2.006 2.006 0 012 2zM27 31l-7 21H3a3 3 0 01-3-3V19a3 3 0 013-3h29.18c.13 0 .26.01.39.02A2.929 2.929 0 0135 18.97V22z" fill="#3b97d3"/><path d="M51 26v7h-5v-6H32v6h-5v-7a4 4 0 014-4h16a4 4 0 014 4z" fill="#d25627"/><g fill="#285680"><path d="M5 48a1 1 0 01-1-1V21a1 1 0 012 0v26a1 1 0 01-1 1zM10 48a1 1 0 01-1-1V21a1 1 0 012 0v26a1 1 0 01-1 1zM15 48a1 1 0 01-1-1V21a1 1 0 012 0v26a1 1 0 01-1 1zM20 28a1 1 0 01-1-1v-6a1 1 0 012 0v6a1 1 0 01-1 1z"/></g><path d="M30 52v4a2.006 2.006 0 01-2 2h-3a2.006 2.006 0 01-2-2v-4zM55 52v4a2.006 2.006 0 01-2 2h-3a2.006 2.006 0 01-2-2v-4z" fill="#805333"/><rect fill="#f29c1f" height="23" rx="2" width="38" x="20" y="31"/><path d="M24 41a1 1 0 01-1-1v-5a1 1 0 011-1h2a1 1 0 010 2h-1v4a1 1 0 01-1 1z" fill="#fff"/><path d="M29 31h2v23h-2zM49 46v8h-2v-8a1 1 0 012 0zM49 31v5.42a1 1 0 01-2 0V31z" fill="#e57e25"/><path d="M50 46h-4a1 1 0 01-1-1v-5.586a1 1 0 01.293-.707l2-2a1 1 0 011.414 0l2 2a1 1 0 01.293.707V45a1 1 0 01-1 1z" fill="#f9eab0"/></g></svg>