<?xml version="1.0" encoding="iso-8859-1"?>
<!-- Generator: Adobe Illustrator 22.0.0, SVG Export Plug-In . SVG Version: 6.00 Build 0)  -->
<svg xmlns="http://www.w3.org/2000/svg" xmlns:xlink="http://www.w3.org/1999/xlink" version="1.1" id="Capa_1" x="0px" y="0px" viewBox="0 0 512 512" style="enable-background:new 0 0 512 512;" xml:space="preserve" width="512" height="512">
<g>
	<path style="fill:#012631;" d="M422,166v301c0,24.813,20.187,45,45,45s45-20.187,45-45V166H422z"/>
	<path style="fill:#00CFFA;" d="M422,0v166c0,24.813,20.187,45,45,45s45-20.187,45-45V0H422z"/>
	<polygon style="fill:#014859;" points="301,0 286,20 271,0 195.5,0 75.5,256 195.5,512 391,512 391,0  "/>
	<polygon style="fill:#016A82;" points="120,0 105,20 90,0 0,0 0,512 195.5,512 195.5,0  "/>
	<polygon style="fill:#FFEEBC;" points="346,45 195.5,45 128.858,256 195.5,467 346,467  "/>
	<rect x="45" y="45" style="fill:#FFFFFF;" width="150.5" height="422"/>
	<polygon style="fill:#9DA9AD;" points="301,0 271,0 271,75 195.5,75 175.5,90 195.5,105 301,105  "/>
	<polygon style="fill:#B7C5C8;" points="120,75 120,0 90,0 90,105 195.5,105 195.5,75  "/>
	<polygon style="fill:#012631;" points="270.5,171.909 195.5,171.909 183.447,186.909 195.5,201.909 270.5,201.909  "/>
	<rect x="120.5" y="171.909" style="fill:#014859;" width="75" height="30"/>
	<path style="fill:#FFAB37;" d="M195.75,231.909l-45,84.091l45,84.091l5.629-2.278c42.141-17.061,69.371-57.459,69.371-102.919   v-62.985H195.75z"/>
	<path style="fill:#FFCD37;" d="M120.75,231.909v62.985c0,45.46,27.23,85.858,69.371,102.919l5.629,2.278V231.909H120.75z"/>
</g>















</svg>
