<?xml version="1.0" encoding="UTF-8" standalone="no"?>
<svg
   xmlns:dc="http://purl.org/dc/elements/1.1/"
   xmlns:cc="http://creativecommons.org/ns#"
   xmlns:rdf="http://www.w3.org/1999/02/22-rdf-syntax-ns#"
   xmlns:svg="http://www.w3.org/2000/svg"
   xmlns="http://www.w3.org/2000/svg"
   xmlns:sodipodi="http://sodipodi.sourceforge.net/DTD/sodipodi-0.dtd"
   xmlns:inkscape="http://www.inkscape.org/namespaces/inkscape"
   height="464"
   viewBox="0 0 58 58"
   width="464"
   version="1.1"
   id="svg48"
   sodipodi:docname="uniform.svg"
   inkscape:version="0.92.4 (5da689c313, 2019-01-14)">
  <metadata
     id="metadata54">
    <rdf:RDF>
      <cc:Work
         rdf:about="">
        <dc:format>image/svg+xml</dc:format>
        <dc:type
           rdf:resource="http://purl.org/dc/dcmitype/StillImage" />
      </cc:Work>
    </rdf:RDF>
  </metadata>
  <defs
     id="defs52" />
  <sodipodi:namedview
     pagecolor="#ffffff"
     bordercolor="#666666"
     borderopacity="1"
     objecttolerance="10"
     gridtolerance="10"
     guidetolerance="10"
     inkscape:pageopacity="0"
     inkscape:pageshadow="2"
     inkscape:window-width="716"
     inkscape:window-height="489"
     id="namedview50"
     showgrid="false"
     inkscape:zoom="0.4609375"
     inkscape:cx="232"
     inkscape:cy="232"
     inkscape:window-x="0"
     inkscape:window-y="0"
     inkscape:window-maximized="0"
     inkscape:current-layer="svg48" />
  <g
     id="g79"
     transform="translate(-3,-3)">
    <path
       id="path2"
       d="M 44,7 H 41.154 L 47,17 h -6 l 3,3 -12,6 -11,-6 2,-3 H 17 L 22.846,7 H 20 l -7,2 v 52 h 16 l 3,-4 3,4 H 51 V 9 Z"
       inkscape:connector-curvature="0"
       style="fill:#55b56a" />
    <path
       id="path4"
       d="m 12.308,15.238 0.417,-2.2 9.348,-2.671 -1.798,2.595 z M 52.056,14.161 43.858,12.99 42,10.704 51.142,12.01 Z"
       inkscape:connector-curvature="0"
       style="fill:#c8d952" />
    <path
       id="path6"
       d="M 13,9 7,15 3,32 v 23 h 10 z m 38,0 6,6 4,17 V 55 H 51 Z"
       inkscape:connector-curvature="0"
       style="fill:#3e8051" />
    <path
       id="path8"
       d="M 38,11 36,7 h -8 l -2,4 6,9 z"
       inkscape:connector-curvature="0"
       style="fill:#55b56a" />
    <path
       id="path10"
       d="m 3,55 h 10 v 4 H 3 Z M 31,25 h 2 v 32 h -2 z"
       inkscape:connector-curvature="0"
       style="fill:#266035" />
    <path
       id="path12"
       d="m 17,26 h 11 v 4 H 17 Z"
       inkscape:connector-curvature="0"
       style="fill:#ffd782" />
    <path
       id="path14"
       d="m 37,26 h 5 v 4 h -5 z"
       inkscape:connector-curvature="0"
       style="fill:#c8d952" />
    <path
       id="path16"
       d="m 42,26 h 5 v 4 h -5 z"
       inkscape:connector-curvature="0"
       style="fill:#266035" />
    <path
       id="path18"
       d="m 17,34 h 11 v 4 H 17 Z"
       inkscape:connector-curvature="0"
       style="fill:#1d4f27" />
    <path
       id="path20"
       d="m 26,44 h -7 l -2,-2 v -4 h 11 v 4 z"
       inkscape:connector-curvature="0"
       style="fill:#266035" />
    <path
       id="path22"
       d="m 36,34 h 11 v 4 H 36 Z"
       inkscape:connector-curvature="0"
       style="fill:#1d4f27" />
    <path
       id="path24"
       d="m 45,44 h -7 l -2,-2 v -4 h 11 v 4 z"
       inkscape:connector-curvature="0"
       style="fill:#266035" />
    <path
       id="path26"
       d="m 16,21 h 2 v 2 h -2 z m 30,0 h 2 v 2 h -2 z"
       inkscape:connector-curvature="0"
       style="fill:#c8d952" />
    <path
       id="path28"
       d="M 4.964,23.655 9,25 V 21 L 5.836,19.945 Z"
       inkscape:connector-curvature="0"
       style="fill:#ffd782" />
    <path
       id="path30"
       d="M 4.091,27.364 9,29 V 25 L 4.964,23.655 Z"
       inkscape:connector-curvature="0"
       style="fill:#f9bb4b" />
    <path
       id="path32"
       d="M 61,59 H 51 v -4 h 10 z"
       inkscape:connector-curvature="0"
       style="fill:#266035" />
    <path
       id="path34"
       d="M 59.036,23.655 55,25 v -4 l 3.164,-1.055 z"
       inkscape:connector-curvature="0"
       style="fill:#ffd782" />
    <path
       id="path36"
       d="M 59.909,27.364 55,29 v -4 l 4.036,-1.345 z"
       inkscape:connector-curvature="0"
       style="fill:#f9bb4b" />
    <path
       id="path38"
       d="M 60.782,31.073 58,32 c -2.146,0.771 -3,1.417 -3,3 v 2 c 0,2.333 1.812,3.958 4,3 l 2,-1 v -7 z"
       inkscape:connector-curvature="0"
       style="fill:#266035" />
    <path
       id="path40"
       d="m 46,56 h 2 v 2 h -2 z m -4,0 h 2 v 2 h -2 z"
       inkscape:connector-curvature="0"
       style="fill:#c8d952" />
    <path
       id="path42"
       d="m 36,7 h -8 l 2,-4 h 4 z"
       inkscape:connector-curvature="0"
       style="fill:#133a1a" />
    <path
       id="path44"
       d="m 26,11 6,9 v 6 L 21,20 23,17 H 17 L 22.846,7 28,3 h 2 z"
       inkscape:connector-curvature="0"
       style="fill:#266035" />
    <path
       id="path46"
       d="m 38,11 -6,9 v 6 l 12,-6 -3,-3 h 6 L 41.154,7 36,3 h -2 z"
       inkscape:connector-curvature="0"
       style="fill:#1d4f27" />
  </g>
</svg>
