<svg height="512" viewBox="0 0 64 64" width="512" xmlns="http://www.w3.org/2000/svg"><path d="M44 7h-2.846L47 17h-6l3 3-12 6-11-6 2-3h-6l5.846-10H20l-7 2v52h16l3-4 3 4h16V9z" fill="#55b56a"/><path d="M12.308 15.238l.417-2.2 9.348-2.671-1.798 2.595zM52.056 14.161l-8.198-1.171L42 10.704l9.142 1.306z" fill="#c8d952"/><path d="M13 9l-6 6-4 17v23h10zM51 9l6 6 4 17v23H51z" fill="#3e8051"/><path d="M38 11l-2-4h-8l-2 4 6 9z" fill="#55b56a"/><path d="M3 55h10v4H3zM31 25h2v32h-2z" fill="#266035"/><path d="M17 26h11v4H17z" fill="#ffd782"/><path d="M37 26h5v4h-5z" fill="#c8d952"/><path d="M42 26h5v4h-5z" fill="#266035"/><path d="M17 34h11v4H17z" fill="#1d4f27"/><path d="M26 44h-7l-2-2v-4h11v4z" fill="#266035"/><path d="M36 34h11v4H36z" fill="#1d4f27"/><path d="M45 44h-7l-2-2v-4h11v4z" fill="#266035"/><path d="M16 21h2v2h-2zM46 21h2v2h-2z" fill="#c8d952"/><path d="M4.964 23.655L9 25v-4l-3.164-1.055z" fill="#ffd782"/><path d="M4.091 27.364L9 29v-4l-4.036-1.345z" fill="#f9bb4b"/><path d="M61 59H51v-4h10z" fill="#266035"/><path d="M59.036 23.655L55 25v-4l3.164-1.055z" fill="#ffd782"/><path d="M59.909 27.364L55 29v-4l4.036-1.345z" fill="#f9bb4b"/><path d="M60.782 31.073L58 32c-2.146.771-3 1.417-3 3v2c0 2.333 1.812 3.958 4 3l2-1v-7z" fill="#266035"/><path d="M46 56h2v2h-2zM42 56h2v2h-2z" fill="#c8d952"/><path d="M36 7h-8l2-4h4z" fill="#133a1a"/><path d="M26 11l6 9v6l-11-6 2-3h-6l5.846-10L28 3h2z" fill="#266035"/><path d="M38 11l-6 9v6l12-6-3-3h6L41.154 7 36 3h-2z" fill="#1d4f27"/></svg>