<svg height="512" viewBox="0 0 64 64" width="512" xmlns="http://www.w3.org/2000/svg"><g id="flat"><path d="m44 7h-2.846l5.846 10h-6l3 3-12 6-11-6 2-3h-6l5.846-10h-2.846l-7 2v52h16l3-4 3 4h16v-52z" fill="#55b56a"/><path d="m12.308 15.238.417-2.2 9.348-2.671-1.798 2.595z" fill="#c8d952"/><path d="m52.056 14.161-8.198-1.171-1.858-2.286 9.142 1.306z" fill="#c8d952"/><path d="m13 9-6 6-4 17v23h10z" fill="#3e8051"/><path d="m51 9 6 6 4 17v23h-10z" fill="#3e8051"/><path d="m38 11-2-4h-8l-2 4 6 9z" fill="#55b56a"/><path d="m3 55h10v4h-10z" fill="#266035"/><path d="m31 25h2v32h-2z" fill="#266035"/><path d="m17 26h11v4h-11z" fill="#ffd782"/><path d="m37 26h5v4h-5z" fill="#c8d952"/><path d="m42 26h5v4h-5z" fill="#266035"/><path d="m17 34h11v4h-11z" fill="#1d4f27"/><path d="m26 44h-7l-2-2v-4h11v4z" fill="#266035"/><path d="m36 34h11v4h-11z" fill="#1d4f27"/><path d="m45 44h-7l-2-2v-4h11v4z" fill="#266035"/><path d="m16 21h2v2h-2z" fill="#c8d952"/><path d="m46 21h2v2h-2z" fill="#c8d952"/><path d="m4.964 23.655 4.036 1.345v-4l-3.164-1.055z" fill="#ffd782"/><path d="m4.091 27.364 4.909 1.636v-4l-4.036-1.345z" fill="#f9bb4b"/><path d="m51 55h10v4h-10z" fill="#266035" transform="matrix(-1 0 0 -1 112 114)"/><path d="m59.036 23.655-4.036 1.345v-4l3.164-1.055z" fill="#ffd782"/><path d="m59.909 27.364-4.909 1.636v-4l4.036-1.345z" fill="#f9bb4b"/><path d="m60.782 31.073-2.782.927c-2.146.771-3 1.417-3 3v2c0 2.333 1.812 3.958 4 3l2-1v-7z" fill="#266035"/><path d="m46 56h2v2h-2z" fill="#c8d952"/><path d="m42 56h2v2h-2z" fill="#c8d952"/><path d="m36 7h-8l2-4h4z" fill="#133a1a"/><path d="m26 11 6 9v6l-11-6 2-3h-6l5.846-10 5.154-4h2z" fill="#266035"/><path d="m38 11-6 9v6l12-6-3-3h6l-5.846-10-5.154-4h-2z" fill="#1d4f27"/></g></svg>