<svg xmlns="http://www.w3.org/2000/svg" viewBox="0 0 512 512" fill="#ffffff"><path d="M119.035 8.003c-34.947 0-63.378 28.432-63.378 63.378 0 3.418.28 6.77.804 10.043C25.19 82.245 0 107.92 0 139.385V512h116V139.385c0-1.586-.082-3.153-.207-4.707 1.074.054 2.155.082 3.242.082 34.947 0 63.378-28.432 63.378-63.379 0-34.946-28.432-63.378-63.378-63.378zM86 482H30V295.856h56V482zm0-216.143H30V139.385c0-15.439 12.56-28 28-28s28 12.56 28 28v126.472zm33.035-161.097c-18.405 0-33.378-14.974-33.378-33.379 0-18.404 14.974-33.378 33.378-33.378s33.378 14.974 33.378 33.378c0 18.405-14.974 33.379-33.378 33.379zM339.687 96.757a62.98 62.98 0 009.535-33.378C349.221 28.432 320.79 0 285.842 0c-34.947 0-63.378 28.432-63.378 63.379 0 13.606 4.324 26.213 11.65 36.55-23.36 7.968-40.214 30.115-40.214 56.137V512h182.6V295.856h.222V177.684H512V96.757H339.687zM285.842 30c18.405 0 33.379 14.974 33.379 33.379 0 18.404-14.974 33.378-33.379 33.378-18.405 0-33.378-14.974-33.378-33.378 0-18.405 14.974-33.379 33.378-33.379zM346.5 482h-46.3V341.467h-30V482h-46.3V295.856h122.6V482zM482 147.684H346.722v118.173H223.9v-109.79c0-16.161 13.148-29.31 29.31-29.31H482v20.927z"/></svg>