<svg xmlns="http://www.w3.org/2000/svg" viewBox="0 0 512 512" fill="#ffffff"><path d="M209.229 129.236a8.514 8.514 0 00-8.371-.273L4.591 231.363A8.533 8.533 0 000 238.932v51.2a8.55 8.55 0 004.105 7.296 8.514 8.514 0 004.429 1.237 8.565 8.565 0 003.942-.964l196.267-102.4a8.533 8.533 0 004.591-7.569v-51.2a8.543 8.543 0 00-4.105-7.296zm-12.962 53.325l-179.2 93.491v-31.949l179.2-93.491v31.949zM505.438 77.029L181.171.229a8.534 8.534 0 00-7.262 1.613 8.514 8.514 0 00-3.243 6.69v51.2a8.532 8.532 0 006.571 8.303l324.267 76.8a8.526 8.526 0 007.254-1.613 8.514 8.514 0 003.243-6.69v-51.2a8.53 8.53 0 00-6.563-8.303zm-10.505 48.709l-307.2-72.755V19.318l307.2 72.764v33.656zM162.133 315.732H76.8a8.536 8.536 0 00-8.533 8.533v179.2a8.536 8.536 0 008.533 8.533h85.333a8.536 8.536 0 008.533-8.533v-179.2c.001-4.71-3.822-8.533-8.533-8.533zm-8.533 179.2H85.333V332.799H153.6v162.133z"/><path d="M479.838 122.162L206.771 57.488c-2.543-.606-5.214 0-7.262 1.613s-3.243 4.079-3.243 6.69v437.675a8.536 8.536 0 008.533 8.533h273.067c4.71 0 8.533-3.823 8.542-8.533V130.465a8.54 8.54 0 00-6.57-8.303zm-10.505 372.77h-256V76.586l256 60.629v357.717z"/><path d="M209.229 180.428a8.534 8.534 0 00-8.371-.273L30.191 269.2a8.533 8.533 0 00-4.591 7.569v226.697a8.536 8.536 0 008.533 8.533H204.8a8.536 8.536 0 008.533-8.533V187.732a8.562 8.562 0 00-4.104-7.304zm-12.962 314.504h-153.6V281.94l153.6-80.137v293.129zM426.667 298.666H256a8.536 8.536 0 00-8.533 8.533v196.267a8.536 8.536 0 008.533 8.533h170.667a8.536 8.536 0 008.533-8.533V307.199a8.536 8.536 0 00-8.533-8.533zm-8.534 196.266h-153.6v-179.2h153.6v179.2z"/><path d="M426.667 341.332H256c-4.71 0-8.533 3.823-8.533 8.533s3.823 8.533 8.533 8.533h170.667c4.71 0 8.533-3.823 8.533-8.533s-3.823-8.533-8.533-8.533zM426.667 383.999H256a8.536 8.536 0 00-8.533 8.533 8.536 8.536 0 008.533 8.533h170.667a8.536 8.536 0 008.533-8.533 8.536 8.536 0 00-8.533-8.533zM426.667 426.666H256c-4.71 0-8.533 3.823-8.533 8.533s3.823 8.533 8.533 8.533h170.667c4.71 0 8.533-3.823 8.533-8.533s-3.823-8.533-8.533-8.533zM162.133 401.066H128c-4.71 0-8.533 3.823-8.533 8.533s3.823 8.533 8.533 8.533h34.133c4.71 0 8.533-3.823 8.533-8.533s-3.822-8.533-8.533-8.533z"/><path d="M128 401.066a8.536 8.536 0 00-8.533 8.533v25.6c0 4.71 3.823 8.533 8.533 8.533s8.533-3.823 8.533-8.533v-25.6a8.536 8.536 0 00-8.533-8.533zM426.667 136.532H256a8.536 8.536 0 00-8.533 8.533v34.133a8.536 8.536 0 008.533 8.533h170.667a8.536 8.536 0 008.533-8.533v-34.133a8.536 8.536 0 00-8.533-8.533zm-8.534 34.134h-153.6v-17.067h153.6v17.067z"/><path d="M264.533 170.666v102.4h153.6v-102.4h-153.6zm136.534 85.333H281.6v-68.267h119.467v68.267z"/><path d="M341.333 170.666a8.536 8.536 0 00-8.533 8.533v85.333c0 4.71 3.823 8.533 8.533 8.533s8.533-3.823 8.533-8.533v-85.333c.001-4.711-3.822-8.533-8.533-8.533z"/><path d="M409.6 213.332H273.067a8.536 8.536 0 00-8.533 8.533 8.536 8.536 0 008.533 8.533H409.6a8.536 8.536 0 008.533-8.533 8.536 8.536 0 00-8.533-8.533zM426.667 255.999H256a8.536 8.536 0 00-8.533 8.533 8.536 8.536 0 008.533 8.533h170.667a8.536 8.536 0 008.533-8.533 8.536 8.536 0 00-8.533-8.533z"/></svg>