<svg height="512" width="512" xmlns="http://www.w3.org/2000/svg" fill="#ffffff"><path d="M248 432v16h64a8 8 0 005.656-2.344L336 427.312l18.344 18.344A8 8 0 00360 448h96a40.047 40.047 0 0040-40V280a40.047 40.047 0 00-40-40h-16v16h16a24.027 24.027 0 0124 24v128a24.027 24.027 0 01-24 24h-92.688l-21.656-21.656a8 8 0 00-11.312 0L308.688 432z"/><path d="M56 448h8v-16h-8a24.027 24.027 0 01-24-24v-12.688l87.031 87.032a46.626 46.626 0 0065.938 0L328 339.312V352h16v-24h-4.688l42.344-42.344A8 8 0 00384 280v-24h24a8 8 0 005.656-2.344l68.688-68.687a46.626 46.626 0 000-65.938l-89.375-89.375a46.626 46.626 0 00-65.938 0l-68.687 68.688A8 8 0 00256 104v24h-24a8 8 0 00-5.656 2.344L32 324.688V280a24.027 24.027 0 0124-24h32v-16H56a40.047 40.047 0 00-40 40v128a40.047 40.047 0 0040 40zM40.969 338.344L235.312 144H264a8 8 0 008-8v-28.688l66.344-66.343c11.57-11.571 31.742-11.571 43.312 0l89.375 89.375a30.629 30.629 0 010 43.312L404.688 240H376a8 8 0 00-8 8v28.688L173.656 471.031c-11.57 11.571-31.742 11.571-43.312 0l-89.375-89.375a30.629 30.629 0 010-43.312zM328 368h16v24h-16zM368 384h40v16h-40zM424 384h40v16h-40zM368 352h96v16h-96z"/><path d="M368 320h96v16h-96zM392 288h72v16h-72zM274.298 157.67l11.31-11.31 15.998 15.997-11.311 11.31zM306.29 189.67l11.311-11.31 15.998 15.997-11.311 11.31zM338.284 221.67l11.31-11.31 15.998 15.997-11.311 11.31zM126.016 295.75l43.733 11.189L156.687 320H128a8 8 0 00-5.656 13.656l56 56A8 8 0 00192 384v-28.688l12.043-12.042 12.266 42.93a8 8 0 0013.347 3.457l16-16A8 8 0 00248 368v-68.688l12.688-12.687A65.507 65.507 0 00280 240a8 8 0 00-8-8 65.507 65.507 0 00-46.625 19.312L212.687 264H144a8 8 0 00-5.656 2.344l-16 16a8 8 0 003.672 13.406zM232 364.688l-4.043 4.042-10.973-38.4L232 315.312zm4.688-102.063a49.582 49.582 0 0126.55-13.863 49.582 49.582 0 01-13.863 26.55l-71.031 71.032A8 8 0 00176 352v12.688L147.312 336H160a8 8 0 005.656-2.344zM147.312 280h49.375L182.9 293.789l-39.314-10.059zM306.302 122.366l63.991-63.99 11.31 11.31-63.99 63.99zM330.297 146.366l63.991-63.99 11.31 11.31-63.99 63.99zM354.292 170.366l63.991-63.99 11.31 11.31-63.99 63.99zM378.284 194.365l23.996-23.996 11.311 11.31-23.996 23.997zM418.284 154.374l23.996-23.996 11.311 11.31-23.996 23.997zM50.304 354.313l39.994-39.994 11.31 11.31-39.993 39.995zM74.296 378.313l23.996-23.996 11.311 11.31-23.996 23.997zM98.291 402.313l23.996-23.996 11.311 11.31-23.996 23.997zM122.286 426.313l23.996-23.996 11.311 11.31-23.996 23.997zM146.281 450.313l23.996-23.996 11.311 11.31-23.996 23.997zM322.28 274.35l15.998-15.997 11.31 11.311-15.997 15.997zM290.28 306.344l15.998-15.998 11.31 11.311-15.997 15.997zM186.305 218.343l55.991-55.991 11.311 11.31-55.991 55.992z"/></svg>