<svg height="512" viewBox="0 0 512 512" width="512" xmlns="http://www.w3.org/2000/svg"><path d="m248 432v16h64a8 8 0 0 0 5.656-2.344l18.344-18.344 18.344 18.344a8 8 0 0 0 5.656 2.344h96a40.047 40.047 0 0 0 40-40v-128a40.047 40.047 0 0 0 -40-40h-16v16h16a24.027 24.027 0 0 1 24 24v128a24.027 24.027 0 0 1 -24 24h-92.688l-21.656-21.656a8 8 0 0 0 -11.312 0l-21.656 21.656z"/><path d="m56 448h8v-16h-8a24.027 24.027 0 0 1 -24-24v-12.688l87.031 87.032a46.626 46.626 0 0 0 65.938 0l143.031-143.032v12.688h16v-24h-4.688l42.344-42.344a8 8 0 0 0 2.344-5.656v-24h24a8 8 0 0 0 5.656-2.344l68.688-68.687a46.626 46.626 0 0 0 0-65.938l-89.375-89.375a46.626 46.626 0 0 0 -65.938 0l-68.687 68.688a8 8 0 0 0 -2.344 5.656v24h-24a8 8 0 0 0 -5.656 2.344l-194.344 194.344v-44.688a24.027 24.027 0 0 1 24-24h32v-16h-32a40.047 40.047 0 0 0 -40 40v128a40.047 40.047 0 0 0 40 40zm-15.031-109.656 194.343-194.344h28.688a8 8 0 0 0 8-8v-28.688l66.344-66.343c11.57-11.571 31.742-11.571 43.312 0l89.375 89.375a30.629 30.629 0 0 1 0 43.312l-66.343 66.344h-28.688a8 8 0 0 0 -8 8v28.688l-194.344 194.343c-11.57 11.571-31.742 11.571-43.312 0l-89.375-89.375a30.629 30.629 0 0 1 0-43.312z"/><path d="m328 368h16v24h-16z"/><path d="m368 384h40v16h-40z"/><path d="m424 384h40v16h-40z"/><path d="m368 352h96v16h-96z"/><path d="m368 320h96v16h-96z"/><path d="m392 288h72v16h-72z"/><path d="m280.001 148.686h15.998v22.627h-15.998z" transform="matrix(.707 -.707 .707 .707 -28.784 250.51)"/><path d="m312.001 180.686h15.998v22.627h-15.998z" transform="matrix(.707 -.707 .707 .707 -42.039 282.51)"/><path d="m344.001 212.686h15.998v22.627h-15.998z" transform="matrix(.707 -.707 .707 .707 -55.294 314.51)"/><path d="m126.016 295.75 43.733 11.189-13.062 13.061h-28.687a8 8 0 0 0 -5.656 13.656l56 56a8 8 0 0 0 13.656-5.656v-28.688l12.043-12.042 12.266 42.93a8 8 0 0 0 13.347 3.457l16-16a8 8 0 0 0 2.344-5.657v-68.688l12.688-12.687a65.507 65.507 0 0 0 19.312-46.625 8 8 0 0 0 -8-8 65.507 65.507 0 0 0 -46.625 19.312l-12.688 12.688h-68.687a8 8 0 0 0 -5.656 2.344l-16 16a8 8 0 0 0 3.672 13.406zm105.984 68.938-4.043 4.042-10.973-38.4 15.016-15.018zm4.688-102.063a49.582 49.582 0 0 1 26.55-13.863 49.582 49.582 0 0 1 -13.863 26.55l-71.031 71.032a8 8 0 0 0 -2.344 5.656v12.688l-28.688-28.688h12.688a8 8 0 0 0 5.656-2.344zm-89.376 17.375h49.375l-13.787 13.789-39.314-10.059z"/><path d="m298.745 88.001h90.51v15.998h-90.51z" transform="matrix(.707 -.707 .707 .707 32.873 271.362)"/><path d="m322.745 112.001h90.51v15.998h-90.51z" transform="matrix(.707 -.707 .707 .707 22.932 295.362)"/><path d="m346.745 136.001h90.51v15.998h-90.51z" transform="matrix(.707 -.707 .707 .707 12.991 319.362)"/><path d="m379.029 180.001h33.941v15.998h-33.941z" transform="matrix(.707 -.707 .707 .707 -16.95 335.078)"/><path d="m419.029 140.001h33.941v15.998h-33.941z" transform="matrix(.707 -.707 .707 .707 23.05 351.647)"/><path d="m47.716 332.001h56.569v15.998h-56.569z" transform="matrix(.707 -.707 .707 .707 -218.156 153.324)"/><path d="m75.029 364.001h33.941v15.998h-33.941z" transform="matrix(.707 -.707 .707 .707 -236.098 174.01)"/><path d="m99.029 388.001h33.941v15.998h-33.941z" transform="matrix(.707 -.707 .707 .707 -246.039 198.01)"/><path d="m123.029 412.001h33.941v15.998h-33.941z" transform="matrix(.707 -.707 .707 .707 -255.98 222.01)"/><path d="m147.029 436.001h33.941v15.998h-33.941z" transform="matrix(.707 -.707 .707 .707 -265.921 246.01)"/><path d="m324.686 264.001h22.627v15.998h-22.627z" transform="matrix(.707 -.707 .707 .707 -93.921 317.255)"/><path d="m292.686 296.001h22.627v15.998h-22.627z" transform="matrix(.707 -.707 .707 .707 -125.921 304)"/><path d="m180.402 188.001h79.196v15.998h-79.196z" transform="matrix(.707 -.707 .707 .707 -74.156 212.971)"/></svg>