<svg xmlns="http://www.w3.org/2000/svg" width="512" height="512" fill="#ffffff"><g data-name="Out line"><path d="M152 112h-16a8 8 0 000 16h16a8 8 0 000-16z"/><path d="M304 264v-47.504l17.194-137.55A56 56 0 00265.626 16H124a27.998 27.998 0 00-8.654 54.625l-50.39 93.582A8 8 0 0072 176h32v96a8 8 0 008 8h72v19.719l-97.541 65.028a177.472 177.472 0 00-78.42 130.457l15.921 1.592a161.527 161.527 0 0171.373-118.737l19.328-12.885a525.697 525.697 0 00-58.324 128.527l15.326 4.598a509.83 509.83 0 0168.842-143.296L143.754 368l-31.515 126.06 15.522 3.88 29.905-119.619 9.94 3.314-7.588 113.833 15.964 1.064 7.8-117.001 33.612-33.612 11.646 13.588a580.623 580.623 0 00-40.312 115.471l-4.516 19.19 15.576 3.664 4.515-19.19A562.317 562.317 0 01302.4 268.8a8 8 0 001.6-4.8zM124 32h141.626a40 40 0 0139.692 44.961l-14.97 119.76-24.853-29.823 13.66-27.32a7.999 7.999 0 00-4.184-11.006l-40-16a8 8 0 00-9.117 2.306L200 145.903V64a8 8 0 00-8-8h-68a12 12 0 010-24zm-4 144h6.041a38.04 38.04 0 0132.455 18.375 7.33 7.33 0 11-12.84 7.05l-2.5-5.003A8 8 0 00136 192h-16zm0 88v-20.687l2.343 2.344A7.999 7.999 0 00128 248h76.687l-16 16zm53.84 102.847l-15.144-5.048-5.567-22.27 37.41-24.94 16.412 19.147zm62.89-22.955L209.394 312h44.885q-9.299 15.685-17.549 31.892zM288 261.343q-12.675 17.06-24 34.843V296h-64v-20.687l45.657-45.656-11.314-11.314L220.687 232h-89.373L120 220.686V208h11.056l.29.58a23.166 23.166 0 0020.773 12.911 23.692 23.692 0 005.75-.712 23.33 23.33 0 0014.347-34.635A54.12 54.12 0 00126.04 160H85.394l47.384-88H184v96a8 8 0 0014.146 5.122l36.28-43.536 26.53 10.613-12.111 24.223a8 8 0 001.009 8.7L288 218.896zM432 272.455v-23.157l15.329-45.986a16.16 16.16 0 00-25.027-18.038 8.042 8.042 0 01-10.458-.743l-8.417-8.418a16.178 16.178 0 00-22.854 0l-8.417 8.418a8.042 8.042 0 01-10.458.742 16.16 16.16 0 00-25.027 18.039L352 249.298v23.164a72.065 72.065 0 00-63.443 62.548l15.877 1.98A56.043 56.043 0 01360 288h64a56.064 56.064 0 0156 56v104a32.036 32.036 0 01-32 32v16a48.054 48.054 0 0048-48V344a72.095 72.095 0 00-64-71.545zM368 256h48v16h-48zm-16.181-57.848c.052-.064.154-.141.15-.16a.626.626 0 01.13.082 24.118 24.118 0 0031.37-2.23l8.418-8.417a.16.16 0 01.226 0l8.418 8.417a24.118 24.118 0 0031.37 2.23c.041-.031.073-.05.085-.062.073.027.17.092.195.092.004 0 .044-.08-.031.148L418.234 240H400v-24h-16v24h-18.234l-13.916-41.748c-.016-.048-.025-.084-.031-.1z"/><path d="M424 352H280a8 8 0 00-8 8v128a8 8 0 008 8h144a8 8 0 008-8V360a8 8 0 00-8-8zm-26.493 48a48.08 48.08 0 00-20.828 32H376v-64h.68a48.08 48.08 0 0020.827 32zM416 409.013V432h-22.987A32.12 32.12 0 01416 409.013zm0-18.026A32.12 32.12 0 01393.013 368H416zM360 368v64h-16v-64zm-72 41.013A32.12 32.12 0 01310.987 432H288zM327.32 432a48.08 48.08 0 00-20.827-32 48.08 48.08 0 0020.828-32H328v64zm-16.333-64A32.12 32.12 0 01288 390.987V368zM288 448h40v32h-40zm56 32v-32h16v32zm32 0v-32h40v32z"/></g></svg>