<svg xmlns="http://www.w3.org/2000/svg" height="512" width="512" fill="#ffffff"><path d="M398.074 245.427a60.735 60.735 0 01-37.108-56.021l-.001-.014A226.747 226.747 0 00261.622 1.731a9.997 9.997 0 00-11.245 0 226.747 226.747 0 00-99.343 187.675 60.735 60.735 0 01-37.108 56.021 96.39 96.39 0 00-58.892 88.908V354c0 5.522 4.477 10 10 10H166v34c0 5.522 4.477 10 10 10h16.144a133.484 133.484 0 0058.233 102.27c1.697 1.153 3.66 1.73 5.623 1.73s3.926-.577 5.623-1.73A133.482 133.482 0 00319.856 408H336c5.523 0 10-4.478 10-10v-34h100.966c5.523 0 10-4.478 10-10v-19.665a96.39 96.39 0 00-58.892-88.908zM256 22.23a206.738 206.738 0 0166.434 81.579H301c-5.523 0-10 4.477-10 10s4.477 10 10 10h29.308a206.965 206.965 0 0110.657 65.597V344H171.034V189.406a206.97 206.97 0 0110.657-65.597h29.33c5.523 0 10-4.477 10-10s-4.477-10-10-10h-21.456A206.747 206.747 0 01256 22.23zM75.034 334.335a76.421 76.421 0 0146.694-70.492 80.794 80.794 0 0029.306-21.181V344h-76zM256 489.653a113.486 113.486 0 01-43.8-81.652h87.6a113.488 113.488 0 01-43.8 81.652zM326 388H186v-24h140zm110.966-44h-76V242.661a80.8 80.8 0 0029.307 21.182 76.423 76.423 0 0146.694 70.492V344z"/><path d="M352 438c-5.523 0-10 4.478-10 10v54c0 5.522 4.477 10 10 10s10-4.478 10-10v-54c0-5.522-4.477-10-10-10zM160 438c-5.523 0-10 4.478-10 10v54c0 5.522 4.477 10 10 10s10-4.478 10-10v-54c0-5.522-4.477-10-10-10zM256 123.81c2.63 0 5.21-1.07 7.07-2.93s2.93-4.44 2.93-7.07-1.07-5.21-2.93-7.07-4.44-2.93-7.07-2.93-5.21 1.07-7.07 2.93-2.93 4.44-2.93 7.07 1.07 5.21 2.93 7.07 4.44 2.93 7.07 2.93z"/><g><path d="M211.589 269.882h16.18v13.914c0 .677.216 1.231.65 1.664.433.436.987.654 1.662.654h12.061c.626 0 1.168-.218 1.626-.654.457-.433.685-.987.685-1.664v-13.914h36.476c.673 0 1.227-.216 1.662-.652.434-.435.65-.99.65-1.667v-9.275c0-.673-.216-1.231-.65-1.665-.433-.436-.989-.654-1.662-.654h-36.477v-8.55h24.558c9.63 0 17.49-2.944 23.583-8.84 6.09-5.89 9.138-13.498 9.138-22.825 0-9.32-3.047-16.93-9.138-22.825-6.092-5.89-13.953-8.84-23.583-8.84h-38.93c-.675 0-1.228.218-1.662.651-.433.436-.65.994-.65 1.667v45.58h-16.18c-.674 0-1.227.228-1.66.687a2.297 2.297 0 00-.651 1.63V245.1c0 .677.216 1.232.65 1.667.435.436.986.651 1.662.651h16.18v8.551h-16.18c-.675 0-1.228.218-1.662.654-.433.433-.65.99-.65 1.665v9.275c0 .677.216 1.232.65 1.667.434.436.987.652 1.662.652zm32.863-70.357h23.114c5.103 0 9.22 1.497 12.35 4.492 3.13 2.995 4.695 6.91 4.695 11.738 0 4.831-1.565 8.747-4.694 11.738-3.131 2.998-7.248 4.495-12.351 4.495h-23.114z"/></g></svg>