<svg xmlns="http://www.w3.org/2000/svg" viewBox="0 0 64 64" width="512" height="512" fill="#ffffff"><path d="M16 42.414L18.586 45h7.828L29 42.414V33H16zM18 35h9v2h-9zm0 4h9v2.586L25.586 43h-6.172L18 41.586zM35 42.414L37.586 45h7.828L48 42.414V33H35zM37 35h9v2h-9zm0 4h9v2.586L44.586 43h-6.172L37 41.586zM16 21h2v2h-2zM46 21h2v2h-2z"/><path d="M57.974 14.771a1.011 1.011 0 00-.267-.478l-6-6a1 1 0 00-.434-.247v-.008l-7-2A1.02 1.02 0 0044 6h-2.5l-4.887-3.79A1 1 0 0036 2h-8a1 1 0 00-.613.21L22.5 6H20a1.02 1.02 0 00-.275.038l-7 2v.008a.991.991 0 00-.434.247l-6 6a1.011 1.011 0 00-.267.478l-4 17A1.038 1.038 0 002 32v27a1 1 0 001 1h9v1a1 1 0 001 1h16a1 1 0 00.8-.4l2.2-2.933 2.2 2.933a1 1 0 00.8.4h16a1 1 0 001-1v-1h9a1 1 0 001-1V32a1.038 1.038 0 00-.026-.229zM6.559 21.24L8 21.721v1.891l-1.854-.618zm-.872 3.709L8 25.721v1.891L5.274 26.7zM12 58H4v-2h8zm0-4H4V32.116l.814-3.458 3.87 1.29A.983.983 0 009 30a1 1 0 001-1v-8a1 1 0 00-.684-.948l-2.3-.766.889-3.78L12 11.414zM40.388 7.672L45.257 16H41a1 1 0 00-.707 1.707l2.019 2.019L33 24.382V20.3l5.832-8.748a1 1 0 00.063-1L35.618 4zM30.618 4h2.764l1 2h-4.764zM14 9.755L20.14 8h.96l-1.856 3.175L14 12.674zm17 46.912L28.5 60H14V14.755l3.787-1.082-1.65 2.827A1 1 0 0017 18h4.131l-.963 1.445a1 1 0 00.353 1.433L28.078 25H16v6h13v-5.5l2 1.091zM27 27v2h-9v-2zm4-2.685l-8.562-4.669 1.394-2.091A1 1 0 0023 16h-4.257l4.869-8.328L28.342 4h.04l-3.277 6.553a1 1 0 00.063 1L31 20.3zm-3.846-13.387L28.618 8h6.764l1.464 2.928L32 18.2zM50 60H35.5L33 56.667V26.618l3-1.5V31h12v-6H36.236l8.211-4.1a1 1 0 00.26-1.6L43.414 18H47a1 1 0 00.863-1.5l-1.871-3.2 4.008.568zM38 29v-2h3v2zm5 0v-2h3v2zm7-17.153l-5.3-.757L42.9 8h.963L50 9.755zm8.314 13.1l.412 1.754-2.726.911v-1.891zm-.46-1.955l-1.854.62v-1.891l1.441-.481zM60 58h-8v-2h8zm0-4h-8V11.414l4.092 4.092.889 3.78-2.3.766A1 1 0 0054 21v8a1 1 0 001 1 .983.983 0 00.316-.052l3.87-1.29.413 1.755-1.937.646C55.732 31.752 54 32.574 54 35v2a4.353 4.353 0 001.827 3.712 3.43 3.43 0 001.9.567 4.29 4.29 0 001.721-.384l.552-.277zm0-15.618l-1.4.7a1.7 1.7 0 01-1.677-.046A2.379 2.379 0 0156 37v-2c0-.866.211-1.3 2.316-2.052L60 32.387z"/><path d="M46 56h2v2h-2zM42 56h2v2h-2z"/></svg>