<?xml version="1.0"?>
<svg xmlns="http://www.w3.org/2000/svg" viewBox="0 0 64 64" width="512" height="512"><g id="outline"><path d="M16,42.414,18.586,45h7.828L29,42.414V33H16ZM18,35h9v2H18Zm0,4h9v2.586L25.586,43H19.414L18,41.586Z"/><path d="M35,42.414,37.586,45h7.828L48,42.414V33H35ZM37,35h9v2H37Zm0,4h9v2.586L44.586,43H38.414L37,41.586Z"/><rect x="16" y="21" width="2" height="2"/><rect x="46" y="21" width="2" height="2"/><path d="M57.974,14.771a1.011,1.011,0,0,0-.267-.478l-6-6a1,1,0,0,0-.434-.247l0-.008-7-2A1.02,1.02,0,0,0,44,6H41.5L36.613,2.21A1,1,0,0,0,36,2H28a1,1,0,0,0-.613.21L22.5,6H20a1.02,1.02,0,0,0-.275.038l-7,2,0,.008a.991.991,0,0,0-.434.247l-6,6a1.011,1.011,0,0,0-.267.478l-4,17A1.038,1.038,0,0,0,2,32V59a1,1,0,0,0,1,1h9v1a1,1,0,0,0,1,1H29a1,1,0,0,0,.8-.4L32,58.667,34.2,61.6a1,1,0,0,0,.8.4H51a1,1,0,0,0,1-1V60h9a1,1,0,0,0,1-1V32a1.038,1.038,0,0,0-.026-.229ZM6.559,21.24,8,21.721v1.891l-1.854-.618Zm-.872,3.709L8,25.721v1.891L5.274,26.7ZM12,58H4V56h8Zm0-4H4V32.116l.814-3.458,3.87,1.29A.983.983,0,0,0,9,30a1,1,0,0,0,1-1V21a1,1,0,0,0-.684-.948l-2.3-.766.889-3.78L12,11.414ZM40.388,7.672,45.257,16H41a1,1,0,0,0-.707,1.707l2.019,2.019L33,24.382V20.3l5.832-8.748a1,1,0,0,0,.063-1L35.618,4ZM30.618,4h2.764l1,2H29.618ZM14,9.755,20.14,8H21.1l-1.856,3.175L14,12.674ZM31,56.667,28.5,60H14V14.755l3.787-1.082L16.137,16.5A1,1,0,0,0,17,18h4.131l-.963,1.445a1,1,0,0,0,.353,1.433L28.078,25H16v6H29V25.5l2,1.091ZM27,27v2H18V27Zm4-2.685-8.562-4.669,1.394-2.091A1,1,0,0,0,23,16H18.743l4.869-8.328L28.342,4h.04l-3.277,6.553a1,1,0,0,0,.063,1L31,20.3ZM27.154,10.928,28.618,8h6.764l1.464,2.928L32,18.2ZM50,60H35.5L33,56.667V26.618l3-1.5V31H48V25H36.236L44.447,20.9a1,1,0,0,0,.26-1.6L43.414,18H47a1,1,0,0,0,.863-1.5l-1.871-3.2L50,13.868ZM38,29V27h3v2Zm5,0V27h3v2Zm7-17.153-5.3-.757L42.9,8h.963L50,9.755Zm8.314,13.1.412,1.754L56,27.612V25.721Zm-.46-1.955L56,23.612V21.721l1.441-.481ZM60,58H52V56h8Zm0-4H52V11.414l4.092,4.092.889,3.78-2.3.766A1,1,0,0,0,54,21v8a1,1,0,0,0,1,1,.983.983,0,0,0,.316-.052l3.87-1.29.413,1.755-1.937.646C55.732,31.752,54,32.574,54,35v2a4.353,4.353,0,0,0,1.827,3.712,3.43,3.43,0,0,0,1.9.567,4.29,4.29,0,0,0,1.721-.384L60,40.618Zm0-15.618-1.4.7a1.7,1.7,0,0,1-1.677-.046A2.379,2.379,0,0,1,56,37V35c0-.866.211-1.3,2.316-2.052L60,32.387Z"/><rect x="46" y="56" width="2" height="2"/><rect x="42" y="56" width="2" height="2"/></g></svg>
