<svg xmlns="http://www.w3.org/2000/svg" viewBox="0 0 512.003 512.003" fill="#ffffff"><path d="M460.768 409.62v85.319H55.502c-21.168 0-38.394-17.226-38.394-38.394v-294.35H.044v294.351c0 30.578 24.879 55.457 55.457 55.457h413.798a8.524 8.524 0 008.532-8.532V409.62h-17.063z"/><path d="M469.299 196.322H55.502c-21.168 0-38.394-17.226-38.394-38.394s17.226-38.394 38.394-38.394H204.81V102.47H55.502c-30.578 0-55.457 24.879-55.457 55.457s24.879 55.457 55.457 55.457h405.266v76.787h17.064v-85.319a8.53 8.53 0 00-8.533-8.53z"/><path d="M503.427 102.471h-68.255v17.064h59.723v281.553h-34.128v17.064h42.66a8.524 8.524 0 008.532-8.532V111.003a8.53 8.53 0 00-8.532-8.532zM341.321 315.769c-18.821 0-34.128 15.306-34.128 34.128s15.306 34.128 34.128 34.128c18.821 0 34.128-15.306 34.128-34.128s-15.307-34.128-34.128-34.128zm0 51.192c-9.411 0-17.064-7.653-17.064-17.064s7.653-17.064 17.064-17.064 17.064 7.653 17.064 17.064-7.654 17.064-17.064 17.064z"/><path d="M503.427 281.642H341.321c-37.634 0-68.255 30.621-68.255 68.255s30.621 68.255 68.255 68.255h162.106a8.524 8.524 0 008.532-8.532V290.173a8.524 8.524 0 00-8.532-8.531zm-8.532 119.446H341.321c-28.232 0-51.191-22.959-51.191-51.191s22.959-51.191 51.191-51.191h153.574v102.382zM494.238 157.579L351.525 12.656c-.06-.068-.128-.128-.188-.196-16.646-16.629-43.709-16.595-60.287-.009L102.077 198.788l11.979 12.149 189.016-186.38c9.948-9.931 26.099-10.008 36.081-.137.034.034.068.06.094.094l142.858 145.068c9.888 9.948 9.888 26.133.034 36.056l-18.855 18.77 12.03 12.09 18.89-18.804c16.492-16.577 16.492-43.563.034-60.115z"/><path d="M415.207 162.203c-23.522 0-42.66 19.137-42.66 42.66h17.064c0-14.112 11.484-25.596 25.596-25.596s25.596 11.484 25.596 25.596h17.064c0-23.523-19.137-42.66-42.66-42.66zM238.53 139.146l76.786-76.786 12.066 12.066-76.786 76.786zM298.26 130.574l42.653-42.653 12.066 12.066-42.652 42.652zM64.034 136.608c-30.578 0-55.457 24.879-55.457 55.457H25.64c0-21.168 17.226-38.394 38.394-38.394h106.649v-17.064H64.034zM17.117 204.889l-17.064-.051c-.009 3.396.29 6.8.904 10.11l16.782-3.106a37.808 37.808 0 01-.622-6.953zM114.355 238.982h17.32v17.064h-17.32zM183.642 238.982h17.32v17.064h-17.32zM149.003 238.982h17.32v17.064h-17.32zM22.91 223.94L9.438 234.418a55.966 55.966 0 0015.17 13.506l8.856-14.581a38.851 38.851 0 01-10.554-9.403zM79.724 238.982h17.32v17.064h-17.32zM46.671 238.368l-3.097 16.782c3.327.614 6.723.93 10.093.93.026 0 .06 0 .085-.008l8.651-.026v-17.064l-8.668.026c-2.38-.197-4.743-.214-7.064-.64zM287.561 238.982h17.32v17.064h-17.32zM218.282 238.982h17.32v17.064h-17.32zM391.48 238.982h17.311v17.064H391.48zM426.119 238.982h17.32v17.064h-17.32zM356.84 238.982h17.32v17.064h-17.32zM322.201 238.982h17.311v17.064h-17.311zM252.922 238.982h17.311v17.064h-17.311zM460.81 238.982h8.532v17.064h-8.532zM17.117 418.178l-17.064-.051a54.83 54.83 0 00.904 10.119l16.782-3.123a37.581 37.581 0 01-.622-6.945zM218.282 452.28h17.32v17.064h-17.32zM183.642 452.28h17.32v17.064h-17.32zM149.003 452.28h17.32v17.064h-17.32zM22.91 437.23L9.438 447.715a55.833 55.833 0 0015.17 13.506l8.856-14.581a38.877 38.877 0 01-10.554-9.41zM46.671 451.666l-3.08 16.782c3.344.614 6.757.922 10.144.922l8.668-.026V452.28l-8.668.026a39.415 39.415 0 01-7.064-.64zM79.724 452.28h17.32v17.064h-17.32zM114.363 452.28h17.32v17.064h-17.32zM391.48 452.28h17.311v17.064H391.48zM356.84 452.28h17.32v17.064h-17.32zM426.119 452.28h17.32v17.064h-17.32zM252.922 452.28h17.32v17.064h-17.32zM287.561 452.28h17.32v17.064h-17.32zM322.201 452.28h17.311v17.064h-17.311z"/><g><path d="M460.81 452.28h8.532v17.064h-8.532z"/></g><g><path d="M469.342 136.599h34.128v17.064h-34.128z"/></g><g><path d="M343.825 156.151l34.128-34.128 12.066 12.066-34.128 34.128z"/></g><g><path d="M301.13 198.825l25.597-25.598 12.066 12.066-25.598 25.598z"/></g></svg>