<svg version="1" xmlns="http://www.w3.org/2000/svg" width="357.333" height="357.333" viewBox="0 0 268.000000 268.000000"><path d="M25.3 4.8c-4.5.3-5.7 1.3-19.4 15.9l-5.6 6 .2 11.9.2 11.9 5 5C8.4 58.2 18.4 67.9 27.9 77S49.2 97.3 54 102c4.8 4.7 11.3 10.9 14.4 13.8 6.2 6 5.9 4.4 5.6 22.9l-.1 9.3-6.1 5.7c-3.3 3.2-10.2 9.8-15.2 14.6-5 4.9-15.2 14.6-22.6 21.7-7.4 7.1-17 16.3-21.3 20.5l-7.8 7.6-.3 11.5c-.3 13.4-.9 12.1 11.7 25l8.8 9.1 5.7.2c3.1.1 8.5.3 11.9.4l6.2.2 7.8-7.4C57 253 68.8 241.7 79 231.9c36.2-34.8 35.2-33.9 38.5-33.9 5.5 0 10.3 2 13.4 5.6l3.1 3.5 2.7-3.1c3.1-3.8 6.2-5.2 12.4-5.7l4.6-.3 10.7 10.3c5.8 5.7 17 16.4 24.8 23.8 7.7 7.4 18.5 17.7 24 22.9l9.9 9.6 6.2-.3c3.4-.1 8.8-.3 11.9-.4l5.7-.1 8.8-9.2c12.6-13 12-11.6 11.6-25.1l-.3-11.7-9.3-8.8c-24.7-23.7-31.3-30-33.2-32-.5-.6-7.7-7.5-15.9-15.3l-14.9-14.3.1-12c.1-6.5.1-12.4.2-13 0-1.1 6.5-7.7 20-20.4 3-2.9 14.1-13.4 24.5-23.5 10.5-10 21.2-20.3 23.8-22.8l4.9-4.6.2-12.3.3-12.3-7.1-7.4C246.7 4.6 247.3 5 240.5 4.9c-3.3 0-8.2-.2-11-.3-2.7-.1-5.7.1-6.5.5-.8.4-4.9 4-9 7.9-4.1 4-14.4 13.8-22.8 21.9-8.4 8-20.1 19.2-25.9 24.8C157 67.7 154 70 151.8 70c-1.5.1-6.6.1-11.3.1-4.7 0-12.7 0-17.8-.1h-9.3l-6.5-6.3c-3.6-3.4-15.4-14.8-26.3-25.2C69.7 28 57.2 16.1 52.9 12l-8-7.5h-7.7c-4.2 0-9.6.1-11.9.3z"/></svg>